<?xml version="1.0" encoding="utf-8"?>
<!-- Generator: Adobe Illustrator 24.3.0, SVG Export Plug-In . SVG Version: 6.00 Build 0)  -->
<svg version="1.0" id="圖層_1" xmlns="http://www.w3.org/2000/svg" xmlns:xlink="http://www.w3.org/1999/xlink" x="0px" y="0px"
	 viewBox="0 0 1080 1080" enable-background="new 0 0 1080 1080" xml:space="preserve">
<g>
	<circle fill="#FFE100" cx="540" cy="540" r="453.942"/>
	<g>
		<path fill="#0091DA" d="M294.517,463.973c-0.389-1.615-0.633-2.917-1.016-4.175c-5.172-16.983-7.716-34.389-6.995-52.089
			c1.259-30.916,10.892-58.573,33.605-80.593c16.063-15.573,35.54-24.247,57.586-27.034c31.743-4.012,61.463,3.13,89.453,17.783
			c11.537,6.039,22.599,13.072,33.458,20.285c5.24,3.48,12.239,1.845,15.156-2.292c2.813-3.987,5.746-7.894,8.423-11.971
			c8.966-13.648,19.897-25.357,33.665-34.253c13.135-8.488,27.628-10.984,43.036-9.707c12.721,1.053,24.79,4.107,36.217,9.908
			c17.608,8.939,30.686,22.025,38.107,40.495c0.453,1.127,1,2.215,1.656,3.657c1.225-0.837,2.169-1.408,3.032-2.082
			c20.92-16.326,44.482-25.211,71.164-23.552c27.414,1.703,52.349,10.887,72.854,29.479c21.536,19.526,30.805,44.58,30.231,73.534
			c-0.436,21.943-6.318,42.352-16.757,61.483c-2.099,3.846-1.895,7.049,0.723,9.956c3.089,3.429,6.416,6.772,10.123,9.495
			c10.761,7.906,21.012,16.31,28.953,27.168c12.337,16.868,18.91,35.877,20.282,56.644c2.802,42.406-16.758,72.919-51.313,95.171
			c-7.222,4.65-15.38,7.273-23.99,8.219c-4.231,0.464-4.954,1.323-5.11,5.582c-0.682,18.615-4.504,36.605-12.91,53.22
			c-12.246,24.203-32.974,37.194-59.335,40.583c-31.11,3.999-57.758-7.218-81.444-26.646c-3.671-3.011-7.074-6.347-10.958-9.855
			c-0.801,1.225-1.565,2.271-2.202,3.39c-8.585,15.081-19.144,28.346-33.651,38.304c-24.796,17.019-51.567,20.364-79.944,11.679
			c-26.417-8.086-47.548-23.722-63.523-46.289c-1.166-1.647-2.349-3.28-3.773-5.269c-0.968,1.128-1.73,1.918-2.383,2.79
			c-21.562,28.843-50.155,46.304-86.006,49.329c-38.242,3.228-70.768-9.134-94.011-41.161
			c-8.728-12.027-12.549-25.857-12.889-40.622c-0.116-5.093,0.17-10.212,0.59-15.293c0.202-2.445-0.935-3.144-2.883-3.743
			c-14.805-4.556-28.51-11.264-40.513-21.166c-26.141-21.562-42.205-48.841-47.276-82.555c-3.59-23.865-1.836-47.113,9.023-68.781
			c16.768-33.454,43.345-54.281,81.151-59.099c5.682-0.723,11.551,0.015,17.333,0.073
			C292.324,463.981,293.191,463.973,294.517,463.973z M826.458,614.249c-1.043-2.528-1.673-3.84-2.135-5.207
			c-2.203-6.529-6.168-11.846-11.221-16.413c-12.005-10.851-26.433-16.428-42.054-19.624c-9.358-1.914-16.925,1.262-23.029,7.861
			c-4.989,5.393-9.205,11.502-13.769,17.289c-7.168,9.088-14.096,18.382-21.593,27.191c-5.593,6.573-6.105,13.676-0.284,20.126
			c4.378,4.85,10.203,6.821,16.38,8.403c7.549,1.932,15.042,4.209,22.362,6.88c6.149,2.243,10.32,7.051,12.829,12.998
			c5.389,12.777,1.204,32.083-9.103,41.244c-5.98,5.314-12.738,9.624-20.796,11.126c-8.825,1.644-17.268,0.234-24.755-4.787
			c-4.5-3.018-5.564-10.015-2.815-14.42c2.376-3.805,6.75-4.191,12.461-1.376c2.939,1.449,5.999,2.749,9.136,3.668
			c2.467,0.722,5.161,1.17,7.711,1.015c6.117-0.373,10.333-3.949,12.861-9.283c2.344-4.946,0.924-9.342-2.526-13.514
			c-3.821-4.62-8.799-6.898-14.61-8.162c-5.076-1.104-10.084-2.458-14.95-4.274c-6.045-2.255-12.95-4.402-17.922-8.54
			c-5.853-4.871-10.625-11.089-15.617-16.935c-3.833-4.489-8.194-8.094-14.188-8.552c-5.06-0.385-10.318-0.629-15.233,0.346
			c-3.671,0.729-7.261,3.083-10.303,5.459c-4.554,3.556-6.053,9.166-8.166,14.32c-2.598,6.343-5.044,12.795-8.23,18.84
			c-4.831,9.169-14.889,14.125-25.164,12.778c-8.485-1.113-16.67-3.797-23.191-9.121c-4.339-3.543-10.092-4.548-15.296-2.474
			c-4.359,1.736-8.152-0.344-9.806-3.898c-1.745-3.748-0.806-6.911,3.348-9.935c4.834-3.518,8.584-8.318,11.564-13.502
			c1.939-3.371,3.966-6.732,6.377-9.756c2.917-3.657,7.708-3.446,10.456,0.337c1.204,1.658,1.952,3.849,2.283,5.898
			c0.806,4.98-1.172,9.414-3.626,13.553c-1.478,2.492-1.097,4.553,1.138,5.812c4.303,2.422,8.665,4.939,13.309,6.511
			c7.436,2.517,13.504-0.577,17.813-6.608c8.409-11.765,11.894-25.655,2.513-39.966c-0.436-0.664-0.815-1.365-1.218-2.05
			c-9.038-15.38-23.232-20.476-39.999-18.895c-7.464,0.703-14.93,2.999-22.034,5.571c-19.682,7.127-30.494,29.506-29.274,45.412
			c0.86,11.208,5.671,20.881,12.072,29.95c8.397,11.9,19.677,18.372,34.221,19.582c6.034,0.502,12.265,0.863,17.621,4.31
			c4.294,2.763,5.284,8.024,2.592,12.363c-2.537,4.089-6.278,6.767-10.787,8.346c-12.204,4.271-24.076,1.859-34.992-3.582
			c-23.415-11.673-36.203-31.492-38.67-57.154c-2.593-26.964,8.895-48.755,28.31-66.72c10.803-9.997,24.544-13.522,38.432-16.237
			c19.291-3.773,38.548-7.187,56.133-16.926c10.254-5.679,19.467-11.958,24.433-22.951c4.586-10.153-0.132-22.018-10.394-26.357
			c-2.385-1.008-4.974-2.12-7.481-2.15c-9.959-0.122-19.986-0.482-29.868,0.477c-10.608,1.029-21.076,3.443-31.8,1.319
			c-15.241-3.02-27.656-10.626-36.891-23.116c-4.266-5.771-9.164-10.774-15.094-14.63c-3.321-2.159-7.513-2.756-11.228-1.38
			c-5.55,2.056-5.837,5.986-6.374,9.739c-0.949,6.62-1.653,13.283-2.849,19.857c-3.185,17.492-12.882,29.979-29.255,37.14
			c-7.356,3.217-15.091,3.845-22.666,1.667c-16.502-4.744-26.735-15.996-31.711-32.255c-3.894-12.727-3.829-25.719-0.655-38.36
			c3.749-14.936,8.62-29.607,13.405-44.262c3.975-12.178,7.282-24.244,5.15-37.321c-1.747-10.712-7.915-18.773-17.203-20.4
			c-8.061-1.411-15.539,0.012-22.171,5.232c-4.93,3.881-8.656,8.644-11.543,14.134c-6.309,11.999-10.802,24.479-10.929,38.315
			c-0.034,3.635,2.798,6.682,6.421,6.967c3.831,0.301,7.726,0.577,11.429,1.509c4.611,1.159,6.587,4.044,6.888,8.615
			c0.335,5.087-0.49,6.521-5.485,8.951c-1.454,0.708-3.981,1.572-5.574,1.862c-17.786,3.245-33.469-0.895-46.496-13.925
			c-4.795-4.796-8.345-10.212-7.607-17.48c0.433-4.267,2.688-6.544,6.771-5.524c3.631,0.907,7.004,2.899,10.431,4.534
			c0.939,0.447,1.666,1.337,2.898,2.365c0.431-1.796,0.893-2.968,0.971-4.167c1.034-15.725,2.707-31.431,0.702-47.215
			c-1.439-11.328-2.697-22.636-8.255-33.001c-5.329-9.937-18.706-11.119-25.888-2.424c-4.047,4.9-7.393,10.555-10.176,16.293
			c-9.697,19.987-12.256,41.225-9.504,63.093c1.202,9.545,2.602,19.15,7.281,27.857c7.735,14.396,17.8,26.819,30.75,36.874
			c5.831,4.528,11.508,9.253,17.28,13.856c8.249,6.576,14.792,14.617,18.636,24.374c3.35,8.508,5.857,17.382,8.266,26.221
			c11.444,41.982,57.538,60.247,94.049,37.093c17.741-11.251,33.126-25.419,48.5-39.588c1.103-1.016,1.4-2.592,0.855-3.989
			c-1.074-2.75-1.861-5.701-2.192-8.633c-0.345-3.038,1.031-5.716,3.973-6.857c2.942-1.14,5.325,0.455,7.125,2.703
			c6.482,8.094,14.016,14.827,23.693,18.928c2.733,1.158,5.15,3.003,5.025,6.227c-0.14,3.643-2.941,5.485-6.053,6.627
			c-5.61,2.059-10.457,0.059-15.013-3.121c-4.247-2.966-4.733-2.949-8.799,0.334c-4.331,3.496-8.697,6.947-13.005,10.469
			c-18.786,15.361-34.718,32.879-44.038,55.817c-5.492,13.517-8.179,27.531-10.401,41.84c-2.785,17.939,0.866,34.337,8.646,50.42
			c6.184,12.783,15.74,22.374,26.495,31.074c16.21,13.113,34.245,21.261,55.625,20.118c27.191-1.455,50.03-11.877,65.503-34.68
			c9.971-14.696,18.079-30.668,26.815-46.187c2.09-3.712,4.608-6.755,8.358-8.641c3.032-1.524,6.323-2.399,9.307,0.016
			c3.152,2.553,3.907,6.043,2.811,9.859c-0.844,2.943-1.842,5.85-2.912,8.72c-1.667,4.477-1.174,8.509,1.436,12.614
			c9.205,14.478,21.773,25.476,38.127,32.414c12.248,5.196,25.969,6.652,38.889,3.473c24.084-5.928,39.18-22.419,46.748-45.871
			c3.229-10.009,2.542-20.73-0.755-30.571c-5.466-16.311-15.806-29.75-27.742-41.994c-1.62-1.662-3.042-1.525-5.102-1.239
			c-3.877,0.538-7.855,0.707-11.76,0.482c-1.362-0.079-3.538-1.629-3.714-2.759c-0.225-1.443,1.092-3.207,1.967-4.702
			c0.354-0.607,1.296-0.871,1.97-1.29c6.528-4.061,13.74-7.09,19.022-13.032c1.064-1.198,2.828-2.151,4.406-2.418
			c1.96-0.332,4.69-0.559,5.925,0.51c1.247,1.079,1.839,4.016,1.351,5.755c-0.869,3.09-2.62,5.981-4.299,8.776
			c-0.899,1.498-1.18,2.387,0.205,3.764c7.172,7.131,15.279,12.876,24.633,16.746c14.902,6.164,29.175,4.167,42.62-4.1
			c9.939-6.112,16.625-15.366,22.276-25.321c10.378-18.278,13.563-37.314,5.953-57.563c-4.993-13.285-12.56-24.889-21.789-35.519
			c-9.367-10.791-20.398-19.159-34.702-22.792c-2.563-0.651-5.078-1.458-7.435-2.654c-3.271-1.659-6.671-3.388-9.616-5.573
			c-4.001-2.967-6.44-7.823-5.38-12.689c1.145-5.257,5.318-7.464,9.312-9.557c6.81-3.569,13.53-7.585,17.399-14.327
			c16.089-28.037,19.112-57.053,5.471-87.056c-3.368-7.407-8.224-13.676-14.681-18.498c-24.18-18.063-51.382-24.443-81.043-19.688
			c-13.954,2.237-26.465,7.888-36.323,18.597c-3.458,3.757-3.699,7.557-1.75,11.849c0.7,1.542,1.711,2.941,2.489,4.452
			c2.18,4.233,4.558,8.387,6.385,12.768c1.523,3.653,1.963,7.719-0.948,10.955c-3.052,3.394-7.226,4.176-11.585,3.194
			c-1.96-0.442-3.904-1.268-5.653-2.272c-5.083-2.92-8.682-7.333-11.238-12.491c-2.567-5.179-4.879-10.497-7.052-15.857
			c-4.64-11.442-8.918-23.035-13.725-34.406c-4.125-9.757-11.974-15.881-21.553-19.843c-6.042-2.498-12.915,0.173-15.588,6.139
			c-1.844,4.116-3.496,8.449-4.349,12.856c-3.014,15.582-5.88,31.195-6.304,47.149c-0.239,8.967-8.026,13.563-16.09,9.606
			c-2.054-1.008-3.911-2.741-5.391-4.528c-3.545-4.281-4.643-9.496-4.978-14.924c-0.827-13.423,4.309-24.691,12.099-35.236
			c5.214-7.057,10.167-14.373,14.51-21.987c3.274-5.739,0.456-10.646-6.149-10.58c-3.37,0.033-6.8,0.46-10.087,1.21
			c-28.711,6.545-59.192,42.654-56.55,76.829c1.84,23.812,16.389,39.586,37.439,44.953c14.828,3.781,28.213-1.33,40.835-8.834
			c7.704-4.581,15.195-9.553,23.091-13.772c7.088-3.787,14.405-0.762,17.777,6.587c3.219,7.015,6.688,13.927,9.634,21.055
			c7.587,18.353,21.505,28.259,40.865,30.573c13.033,1.559,25.341-1.161,34.042-11.564c13.225-15.809,16.959-33.518,7.7-52.91
			c-1.604-3.361-2.813-6.938-3.911-10.506c-0.826-2.679,0.763-4.916,3.558-5.124c5.47-0.406,10.246,1.173,13.669,5.589
			c2.634,3.396,5.623,22.77,8.382,30.426c0.434,1.203,1.673,1.42,2.93,1.658c7.304,1.381,21.549,7.212,25.243,8.943
			c4.704,2.204,3.675,6.276,3.389,10.036c-0.257,3.399-2.688,4.81-5.728,5.341c-7.53,1.314-14.98,0.932-22.111-1.872
			c-2.607-1.024-4.289-0.622-5.859,1.471c-2.245,2.992-4.777,5.802-6.74,8.966c-13.765,22.181-15.69,45.59-5.187,70.263
			c6.17,14.495,22.545,33.346,35.777,41.895c8.013,5.177,16.501,9.648,25.162,13.782c1.757,0.839,3.765,1.149,6.274,1.886
			c-0.268-1.844-0.383-2.924-0.587-3.988c-0.62-3.229-1.43-6.429-1.886-9.68c-1.082-7.721,4.633-12.144,11.882-9.219
			c1.338,0.541,2.766,1.314,3.666,2.389c2.025,2.415,4.268,4.857,5.5,7.689c6.901,15.854,5.573,31.402-2.63,46.423
			C830.846,609.848,828.784,611.551,826.458,614.249z M246.281,601.462c1.506,3.427,2.835,6.047,3.81,8.792
			c0.826,2.323,1.68,4.78,1.75,7.2c0.135,4.708-3.022,6.702-7.211,4.623c-1.862-0.925-3.632-2.411-4.918-4.054
			c-6.894-8.802-7.73-19.095-6.847-29.722c0.09-1.089,0.596-2.201,1.125-3.187c1.735-3.239,5.444-3.665,6.897-0.379
			c1.846,4.176,4.881,4.471,8.551,4.371c1.464-0.04,2.938,0.194,4.403,0.342c10.755,1.08,21.527,1.67,32.234-0.264
			c16.225-2.931,30.442-10.18,43.394-20.256c12.317-9.582,16.429-22.794,15.569-37.396c-1.143-19.399-14.493-30.896-29.598-40.241
			c-7.602-4.703-16.752-5.726-25.639-5.999c-23.057-0.708-43.953,4.69-61.209,21.289c-17.056,16.407-27.674,35.465-27.567,59.684
			c0.088,20.003,5.499,38.577,15.011,56c15.925,29.174,39.218,48.775,72.57,54.979c2.983,0.554,6.08,0.526,9.127,0.708
			c3.396,0.202,6.823,0.122,10.189,0.543c5.355,0.667,7.372,5.132,4.537,9.741c-0.769,1.249-1.809,2.328-2.693,3.51
			c-3.535,4.722-7.289,9.299-10.536,14.211c-7.213,10.91-6.182,21.893,0.459,32.666c5.138,8.335,14.543,10.622,22.713,5.324
			c3.692-2.394,7.231-5.15,10.409-8.19c14.309-13.686,22.156-31.36,29.847-49.097c1.978-4.562,3.665-9.262,5.861-13.712
			c1.205-2.444,3.126-4.586,6.522-3.598c3.64,1.059,5.606,3.276,5.106,7.333c-0.577,4.687-1.36,9.513-3.095,13.863
			c-5.796,14.533-12.028,28.892-18.155,43.291c-2.798,6.576-4.499,13.358-3.855,20.531c1.115,12.458,7.971,19.706,20.655,19.849
			c6.692,0.076,13.841-0.682,20.033-3.037c21.483-8.164,37.037-23.104,45.909-44.393c5.34-12.816,8.512-26.206,9.255-40.241
			c0.636-12.024,0.285-23.862-2.893-35.462c-2.842-10.367-7.429-19.345-18.615-23.505c-11.11-4.131-23.671-0.853-30.392,8.852
			c-1.68,2.424-3.165,4.983-4.814,7.43c-2.785,4.132-6.292,5.44-9.822,3.75c-3.388-1.621-4.49-5.041-3.412-9.672
			c1.616-6.946,3.469-13.873,4.484-20.915c1.278-8.868-1.757-16.357-9.239-21.634c-8-5.644-17.202-7.634-26.757-7.789
			c-12.596-0.203-24.795,2.251-36.762,6.173c-17.677,5.792-35.761,9.301-54.474,8.609
			C254.482,602.243,250.776,601.817,246.281,601.462z M401.749,317.526c-8.94,0.276-18.16,1.089-27.115,4.029
			c-4.506,1.478-7.04,4.565-7.943,8.935c-1.684,8.156-0.138,15.868,4.466,22.754c1.198,1.792,3.568,3.723,5.544,3.892
			c5.348,0.458,10.87,0.617,16.147-0.219c10.766-1.707,21.381-3.958,32.375-1.663c19.154,3.999,35.005,18.426,37.848,35.77
			c2.695,16.436-1.647,31.729-9.484,46.132c-4.123,7.576-8.559,14.983-12.616,22.594c-5.897,11.065-10.237,22.571-8.298,35.482
			c1.671,11.137,5.07,21.544,14.184,28.957c6.246,5.08,13.248,7.496,21.521,5.115c10.56-3.039,16.845-10.689,21.059-19.942
			c5.51-12.1,3.851-28.29-9.242-37.898c-1.902-1.396-3.642-3.116-5.137-4.948c-7.057-8.645-3.659-20.201,6.932-23.52
			c5.937-1.862,11.993-2.575,18.088-0.617c5.511,1.769,11.184,3.176,16.473,5.463c11.289,4.881,21.335,11.531,28.635,21.806
			c4.142,5.83,8.574,11.459,13.006,17.075c4.607,5.837,10.329,10.323,17.518,12.442c14.198,4.186,28.615,5.909,43.411,3.579
			c11.201-1.764,22.416-3.469,33.864-2.415c17.591,1.619,30.785,17.727,28.74,35.333c-1.142,9.829-4.642,18.712-10.694,26.522
			c-5.424,7.002-11.019,13.871-16.536,20.8c-4.539,5.7-6.177,12.135-5.696,19.421c1.22,18.511,15.956,26.941,29.328,23.193
			c5.84-1.636,11.647-4.778,16.415-8.563c10.026-7.959,16.738-18.847,22.52-30.056c7.081-13.726,11.031-28.491,12.451-43.947
			c0.649-7.068,0.804-14.005-0.815-20.961c-5.933-25.502-22.378-40.936-46.858-48.198c-12.959-3.844-24.147-9.722-31.69-21.391
			c-2.152-3.329-4.894-6.273-7.105-9.569c-4.111-6.125-10.176-8.755-17.102-8.973c-4.327-0.135-8.894,0.578-13.016,1.935
			c-17.96,5.915-36.194,7.455-54.746,3.958c-13.842-2.609-25.713-8.477-35.204-19.628c-6.893-8.098-13.107-16.449-16.453-26.383
			c-4.093-12.155-9.766-23.432-16.006-34.534c-7.786-13.854-18.842-24.093-33.375-30.417
			C439.625,321.252,421.141,318.089,401.749,317.526z"/>
		<path fill="#0091DA" d="M336.263,644.731c-9.02,2.072-17.348,4.316-25.804,5.85c-12.231,2.22-24.419,2.102-36.139-2.831
			c-1.646-0.693-3.281-1.614-4.631-2.769c-3.604-3.083-3.169-7.306,1.225-9.181c2.496-1.065,5.494-1.38,8.255-1.332
			c11.551,0.205,23.146,1.564,34.572-1.175c6.28-1.505,12.468-3.401,18.71-5.07c2.215-0.592,2.988-1.66,2.751-4.153
			c-0.225-2.376,0.122-5.038,1.024-7.245c2.837-6.94,8.764-7.88,13.372-1.879c2.409,3.137,4.314,7.024,5.235,10.862
			c1.834,7.643,0.666,15.432-1.464,22.856c-1.022,3.564-3.318,6.999-5.775,9.859c-3.493,4.07-8.335,2.833-9.994-2.257
			c-0.584-1.792-0.592-3.779-0.806-5.684C336.585,648.702,336.449,646.812,336.263,644.731z"/>
		<path fill="#0091DA" d="M288.519,532.371c-0.323-1.843-0.645-3.25-0.807-4.676c-0.464-4.095,0.862-6.898,3.849-8.309
			c2.758-1.304,6.465-0.537,9.098,1.996c3.526,3.391,5.409,7.78,5.659,12.455c0.314,5.847,0.09,11.793-0.679,17.593
			c-0.318,2.402-2.227,5.034-4.16,6.691c-4.191,3.594-9.799,2.189-12.328-2.719c-0.769-1.492-1.233-3.169-1.642-4.81
			c-1.12-4.484-1.713-5.162-6.444-4.63c-2.877,0.324-5.85,1.066-8.45,2.312c-5.617,2.694-11.022,5.836-16.515,8.791
			c-0.698,0.376-1.376,0.816-2.115,1.084c-3.013,1.089-6.086,1.571-8.571-0.992c-2.54-2.62-1.872-5.756-0.417-8.564
			c3.623-6.987,9.945-11.217,17.058-13.212c6.991-1.961,14.495-2.111,21.782-2.986C285.261,532.225,286.724,532.371,288.519,532.371
			z"/>
		<path fill="#0091DA" d="M426.195,689.83c-2.669,16.751-8.546,31.969-21.341,43.748c-1.904,1.753-4.693,2.748-7.244,3.544
			c-3.048,0.952-5.356-1.515-4.624-4.675c0.278-1.192,0.86-2.343,1.466-3.421c2.005-3.559,4.026-7.112,6.147-10.604
			c6.332-10.426,11.811-21.205,14.627-33.195c0.601-2.555,1.172-6.019,4.563-5.986c3.205,0.032,4.436,3.173,5.427,5.849
			C425.754,686.546,425.866,688.162,426.195,689.83z"/>
	</g>
</g>
</svg>
