<?xml version="1.0" encoding="utf-8"?>
<!-- Generator: Adobe Illustrator 24.3.0, SVG Export Plug-In . SVG Version: 6.00 Build 0)  -->
<svg version="1.0" id="圖層_1" xmlns="http://www.w3.org/2000/svg" xmlns:xlink="http://www.w3.org/1999/xlink" x="0px" y="0px"
	 viewBox="0 0 1080 1080" enable-background="new 0 0 1080 1080" xml:space="preserve">
<g>
	<g>
		<path fill="#82C9EF" d="M736.281,683.771c-8.942,22.257-20.021,43.418-32.375,63.955c-11.929,19.831-28.591,35.227-46.178,49.745
			c-2.32,1.914-3.923,4.174-5.682,6.431c-1.539-0.201-2.958-0.184-4.37,0.807c-6.911,4.848-14.477,8.677-21.497,13.275
			c-4.238,2.775-10.333,2.435-12.965,7.723c-7.006-0.449-12.975,3.341-19.467,4.963c-17.485,4.368-35.166,7.066-53.12,6.41
			c-34.935-1.276-68.781-7.932-100.771-22.607c-2.61-1.198-5.183-2.616-8.214-2.462c-0.533-1.858-2.013-2.729-3.619-3.469
			c-8.415-3.876-16.631-8.078-23.546-14.408c-1.133-1.037-2.443-0.982-3.801-0.604c-7.192-8.51-14.697-16.776-21.514-25.575
			c-17.173-22.17-26.984-47.661-32.706-74.878c-2.406-11.448-4.675-22.924-7.007-34.388c1.028-0.812,1.234-1.958,1.041-3.122
			c-1.592-9.644-2.443-19.347-2.464-29.126c-0.001-0.469-0.6-0.937-0.921-1.406c-0.146-27.719,1.761-55.25,6.7-82.577
			c1.497-8.292,1.915-16.796,5.063-24.719c2.312-5.824,6.053-10.242,12.766-11.124c7.609,28.873,29.909,41.794,55.503,51.139
			l-0.034-0.054c0.056,0.814,0.635,1.029,1.304,1.145c3.47,1.413,6.876,3.039,10.707,3.265c12.283,3.815,24.499,7.86,36.861,11.397
			c24.23,6.932,48.701,12.841,73.747,16.07c6.637,4.057,14.251,2.634,21.402,3.815c4.764,0.05,9.479,0.484,14.219,1.087
			c8.667,1.1,17.397,1.694,26.101,2.5c2.902,0.273,5.802,0.547,8.704,0.822c9.786,0.529,19.567,1.395,29.357,1.501
			c11.734,0.126,23.467-0.555,35.108-2.192c14.239-2.003,28.774-2.836,42.299-8.143c14.52-5.697,28.141-12.676,28.761-31.342
			c10.809,2.61,16.135,10.621,14.891,23.728c-1.114,11.729-0.988,23.6-3.547,35.174c-1.532,6.938-3.224,13.845-5.008,20.722
			c-0.542,2.088-0.919,4.12-0.688,6.258C746.31,656.929,741.296,670.352,736.281,683.771z M415.975,663.293
			c1.279,4.855,0.192,11.201,2.799,16.997c5.524,12.283,15.383,19.218,27.841,23.492c11.987,4.114,30.98-3.949,37.337-14.421
			c11.775-19.398,8.081-38.844-3.049-56.101c-12.429-19.268-40.069-20.387-53.807-3.378
			C419.604,639.159,416.451,650.249,415.975,663.293z M623.723,646.851c-6.361,0.161-10.823,1.15-14.922,4.081
			c-20.711,14.819-29.791,36.789-14.044,60.604c12.904,19.514,36.907,20.427,51.568,5.644c13.957-14.072,17.409-31.515,8.081-49.932
			C648.118,654.833,637.709,647.934,623.723,646.851z M546.947,689.444c0.932-11.086-2.163-21.848-2.587-32.827
			c-0.088-2.255-1.268-4.446-1.675-6.717c-0.637-3.557-1.826-6.247-6.16-6.182c-4.201,0.063-4.993,3.006-5.556,6.143
			c-1.952,10.854-1.579,21.876-2.209,32.824c-0.173,3.016-0.686,4.536-4.001,5.743c-5.327,1.938-10.604,4.096-14.824,8.596
			c-12.79,13.638-4.394,33.031,4.922,40.718c7.863,6.487,16.878,10.384,27.355,6.111c6.517-2.657,9.793-9.314,8.109-16.017
			c-1.217-4.849-6.816-7.325-14.004-5.926c-2.145,0.417-4.077,0.595-6.223-0.055c-4.742-1.438-6.115-5.176-4.949-9.066
			c1.297-4.328,4.564-0.812,6.679-0.263c7.616,1.978,10.385,0.622,13.638-6.522C547.941,700.561,546.485,694.95,546.947,689.444z
			 M681.656,641.212c0.65-5.319-1.415-9.968-5.902-13.29c-10.506-7.775-20.91-15.749-34.089-18.766
			c-8.493-1.942-19.1,2.385-21.156,8.955c-1.899,6.068,3.535,14.457,11.618,17.915c0.706,0.302,1.478,0.449,2.178,0.764
			c9.125,4.089,18.431,7.867,25.865,14.899c4.025,3.808,8.621,6.261,14.076,3.608C679.791,652.601,682.418,647.875,681.656,641.212z
			 M441.551,575.131c-6.34,0.461-12.705,1.161-18.541,3.781c-12.432,5.581-22.928,13.35-28.117,26.66
			c-2.053,5.266-0.294,9.405,3.685,12.896c3.76,3.3,7.641,1.674,11.326-0.062c3.531-1.662,6.274-4.457,8.856-7.332
			c4.001-4.453,8.998-6.926,14.702-8.633c4.522-1.355,8.983-1.804,13.63-1.944c6.49-0.194,13.166-5.715,13.964-11.089
			c0.803-5.399-2.886-11.118-8.704-12.613C448.86,575.898,445.294,574.805,441.551,575.131z M446.164,742.778
			c0.087-9.73-6.172-16.783-14.992-16.894c-10.772-0.134-20.453,9.265-20.552,19.954c-0.09,9.488,7.572,16.493,18.297,16.734
			C439.794,762.815,446.048,755.637,446.164,742.778z M640.104,767.467c0.05-9.413-6.229-16.724-14.559-16.95
			c-8.216-0.225-15.263,8.305-15.289,18.51c-0.025,9.665,5.64,16.138,14.244,16.272C633.519,785.44,640.049,777.98,640.104,767.467z
			"/>
		<path fill="#EC80AF" d="M632.063,363.812c-8.222,18.359-12.299,37.653-12.921,57.705c-0.082,2.624-0.492,3.544-3.65,3.238
			c-7.091-0.685-14.326-1.327-21.375,0.039c-20.333,3.937-33.095,17.071-41.657,35.104c-4.91,10.34-4.812,20.802-0.97,31.411
			c0.537,1.482,0.851,3.307,2.772,3.166c1.95-0.143,2.864-1.792,3.096-3.635c0.168-1.335-0.042-2.724,0.165-4.049
			c2.567-16.588,7.593-31.989,22.018-42.325c11.066-7.931,23.849-9.273,36.955-8.411c3.024,0.198,5.52,1.906,7.556,4.703
			c10.269,14.105,31.761,13.341,41.94-1.102c4.112-5.835,5.428-12.365,5.589-19.961c2.311,2.012,3.832,3.466,5.489,4.744
			c1.808,1.395,3.765,1.299,5.075-0.584c1.272-1.83-0.516-2.902-1.72-3.64c-4.068-2.494-7.052-5.924-9.409-10.002
			c-0.669-1.155-1.477-2.492-3.132-1.854c-1.308,0.505-1.213,1.87-1.169,3.01c0.346,8.734-3.824,15.991-7.584,23.385
			c-1.452,2.856-3.635,4.978-6.511,6.365c-7.841,3.781-16.44,0.32-20.595-8.306c-5.843-12.128-4.587-25.065-2.93-37.577
			c1.812-13.676,7.021-26.369,17.634-36.073c12.276-8.659,35.021-4.836,47.922,5.851c16.828,13.94,27.219,24.215,26.153,46.129
			c-0.318,6.538-3.843,16.777-5.329,20.083c-1.663,4.439-3.958,8.578-5.56,13.09c-4.325,12.187-10.118,23.442-23.14,28.806
			c-1.327,0.546-4.173,0.588-3.198,2.992c0.812,2.007,3.398,1.915,5.175,1.213c3.933-1.553,7.975-3.087,11.48-5.38
			c3.22-2.107,4.481-1.084,6.406,1.591c5.489,7.629,8.791,15.763,7.609,25.36c-0.176,1.423-0.519,3.434,1.433,3.954
			c2.216,0.59,3.169-1.31,3.565-2.964c1.067-4.454,2.297-8.848,1.501-13.614c-1.383-8.265-4.431-15.919-7.75-23.511
			c-0.694-1.588-1.875-3.185-1.021-4.926c3.717-7.582,4.886-16.308,10.36-23.096c16.458-0.795,26.947,8.708,34.077,21.706
			c7.139,13.012,12.456,27.006,10.872,42.497c-1.65,16.125-7.661,30.04-20.375,40.624c-2.068,1.722-3.961,3.656-5.935,5.493
			c-1.482,0.405-2.942,0.934-4.447,1.194c-11.46,1.985-22.495,7.384-34.56,4.58c-19.01-4.417-34.217-13.216-38.75-34.127
			c-0.284-1.311-0.83-2.569-1.314-3.829c-0.417-1.09-0.917-2.265-2.334-2.174c-1.401,0.092-1.712,1.302-2.067,2.431
			c-1.713,5.465-2.212,11.164-0.828,16.587c1.042,4.084-0.508,5.482-3.614,7.104c-17.112,8.936-33.232,4.166-48.422-4.391
			c-12.327-6.944-11.972-24.636-0.273-32.784c3.891-2.71,7.242-4.733,9.374,1.791c0.497,1.519,1.97,3.277,4.025,2.402
			c2.126-0.906,1.326-2.974,0.954-4.592c-1.507-6.564-3.057-13.117-4.734-19.636c-0.346-1.342-0.566-3.366-2.819-2.917
			c-1.73,0.346-2.537,1.649-2.567,3.39c-0.036,2.127-0.22,4.273-0.007,6.376c0.391,3.844-0.685,5.754-4.706,7.586
			c-11.317,5.156-19.847,13.156-21.686,26.445c-0.871,6.293-3.39,8.582-9.773,8.033c-17.683-1.521-32.641-7.494-42.081-24.16
			c-13.383-23.629-13.341-46.507,1.448-69.337c2.088-3.224,4.648-5.288,8.542-6.297c7.038-1.826,12.239-5.957,15.17-13.051
			c1.909-4.62,2.252-9.381,2.713-14.113c1.796-18.394-0.546-35.831-13.018-50.603c5.601-9.051,11.506-17.848,20.815-23.62
			c21.448-13.3,48.737-3.335,59.503,15.485C631.137,352.655,632.125,362.617,632.063,363.812z"/>
		<path fill="#EC80AF" d="M539.723,589.577c-25.046-3.229-49.517-9.137-73.747-16.07c-12.362-3.537-24.578-7.582-36.863-11.397
			c-5.327-9.893-8.038-20.336-7.396-31.685c0.706-12.487,12.881-25.586,24.62-26.148c1.734-0.082,4.563,1.237,4.916-1.366
			c0.316-2.326-2.386-3.343-4.402-3.918c-1.824-0.52-3.811-0.653-5.723-0.638c-8.905,0.063-15.017-3.777-18.043-12.343
			c-2.698-7.64-5.624-15.201-8.324-22.842c-1.064-3.017-2.431-5.782-4.735-8.828c-1.316,2.442-0.718,4.183-0.31,6.022
			c2.716,12.216,5.305,24.46,8.031,36.674c0.999,4.47,0.958,8.379-1.811,12.587c-2.352,3.576-5.111,7.203-5.705,11.861
			c-1.36,10.669,0.694,20.687,5.127,30.342c0.867,1.889,2.442,3.573,1.777,5.926c-25.594-9.345-47.894-22.266-55.503-51.139
			c-4.827-28.896,2.682-55.25,17.771-79.483c12.817-20.581,31.862-30.883,56.502-29.257c5.046,0.334,6.352-1.318,7.112-6.238
			c3-19.463,7.96-38.538,23.102-52.401c12.674-11.602,28.012-17.649,45.651-15.714c14.367,1.576,21.995,11.573,28.232,23.161
			c0.808,1.501,1.54,3.043,2.309,4.564c0.879,2.745,1.478,5.623,2.686,8.216c6.924,14.869,7.927,30.383,5.525,46.354
			c-1.217,8.09-7.178,15.369-14.306,17.313c-8.57,2.339-13.881-2.527-18.669-8.416c-4.12-5.069-6.226-11.101-7.302-17.423
			c-1.332-7.812,2.414-12.705,10.053-13.72c1.713-0.228,3.946-0.332,4.152-2.326c0.259-2.489-2.197-2.147-3.804-2.402
			c-6.147-0.974-12.07-1.976-15.682-8.216c-1.469-2.539-2.793-7.916-6.136-6.175c-2.622,1.367,0.542,5.965,1.379,9.148
			c0.948,3.607,4.232,6.357,3.115,10.775c-4.061,16.064,0.718,29.767,12.335,41.054c3.289,3.195,3.923,5.537,2.309,9.917
			c-6.184,16.788-10.24,33.908-5.749,51.991c4.833,19.459,12.278,37.082,31.326,46.986c3.169,1.647,2.485,3.187,0.43,5.247
			c-9.203,9.223-11.362,20.522-9.768,33.016C534.981,578.643,538.153,583.83,539.723,589.577z M458.075,419.553
			c-0.528,0.358-1.056,0.716-1.584,1.074c4.053,6.182,8.344,12.223,12.107,18.575c6.154,10.385,10.309,21.73,11.081,33.701
			c1.383,21.452-1.351,42.342-12.004,61.599c-1.741,3.146-4.006,7.219,0.121,9.813c3.736,2.348,7.468,0.089,10.298-2.882
			c1.312-1.378,2.36-3.045,3.348-4.689c3.012-5.004,4.829-10.503,6.662-16.016c0.674-2.027,0.386-5.268,3.276-5.517
			c2.342-0.204,3.124,2.548,4.274,4.258c4.517,6.721,9.828,12.924,13.066,20.478c1.157,2.698,3.307,4.439,6.442,3.776
			c3.319-0.7,2.931-3.533,3.106-6.042c0.326-4.691-1.275-8.623-4.084-12.325c-5.546-7.31-12.016-13.589-19.734-18.553
			c-1.863-1.198-3.075-2.434-3.127-5.012c-0.437-21.356-5.107-41.641-16.174-60.127
			C470.334,433.622,465.071,425.867,458.075,419.553z"/>
		<path fill="#558DCA" d="M337.106,625.035c0.32,0.469,0.919,0.937,0.921,1.406c0.02,9.779,0.871,19.482,2.464,29.126
			c0.193,1.163-0.013,2.309-1.041,3.122c-16.604-0.471-33.213,0.272-49.828-1.228c-28.441-2.567-55.953-9.034-82.916-18.139
			c-25.023-8.45-48.505-19.978-69.874-35.604c-2.599-1.899-5.038-1.83-7.485-0.178c-13.689,9.243-28.928,11.161-44.933,9.779
			c-7.344-0.635-13.775-4.927-15.192-10.461c-1.453-5.67,1.47-11.811,7.769-16.167c3.468-2.398,9.606-3.225,10.172-6.832
			c0.576-3.677-5.814-5.159-8.235-8.59c-3.707-5.254-9.534-9.811-6.339-17.391c3.517-8.341,10.085-12.334,19.135-12.398
			c5.463-0.039,10.886,0.133,15.763,2.942c3.1,1.785,4.418,0.645,5.463-2.385c1.196-3.462,2.792-6.788,5.042-9.751
			c3.855-5.072,9.815-7.096,15.946-5.348c9.059,2.584,13.997,9.042,14.642,18.37c0.586,8.505,0.775,17.006,0.434,25.504
			c-0.134,3.34,1.159,5.088,3.773,7.029c27.299,20.274,58.873,30.319,91.307,38.112c22.183,5.331,44.799,8.132,67.548,9.893
			C320.189,626.507,328.616,625.192,337.106,625.035z"/>
		<path fill="#558DCA" d="M400.677,793.531c1.358-0.378,2.669-0.433,3.801,0.604c6.915,6.329,15.131,10.531,23.546,14.408
			c1.606,0.74,3.086,1.611,3.619,3.469c-4.615,8.239-9.613,16.293-13.776,24.759C407.483,857.88,397.45,879.157,388.643,901
			c-3.824,9.482-8.899,18.337-14.526,26.943c-7.727,11.819-18.748,13.717-30.972,10.661c-15.965-3.992-30.11-11.897-42.134-23.227
			c-9.919-9.348-12.967-21.246-11.213-34.382c1.284-9.617,11.38-16.941,24.242-17.858c9.322-0.665,18.374,0.134,26.945,4.794
			c8.243,4.482,8.62,3.337,13.148-4.89C367.615,838.547,380.716,813.717,400.677,793.531z"/>
		<path fill="#558DCA" d="M613.215,825.708c2.632-5.288,8.727-4.949,12.965-7.723c7.019-4.597,14.586-8.427,21.497-13.275
			c1.411-0.991,2.831-1.008,4.37-0.807c-0.087,0.655-0.617,40.301-0.375,58.283c0.113,8.306,0.764,16.606,0.848,24.911
			c0.039,3.849,0.824,5.087,4.932,3.744c8.644-2.827,17.449-4.957,26.732-3.736c10.228,1.344,16.482,6.794,20.202,16.551
			c8.302,21.781-1.134,33.64-15.496,44.323c-15.5,11.528-33.575,15.054-52.356,16.056c-6.546,0.349-12.751-1.594-18.518-4.179
			c-6.833-3.064-9.468-9.336-9.547-16.626c-0.137-12.57,1.171-25.1,1.925-37.612c0.905-15.054,1.508-30.094,1.866-45.159
			C612.534,848.873,612.893,837.291,613.215,825.708z"/>
		<path fill="#558DCA" d="M736.281,683.771c5.014-13.42,10.029-26.842,15.042-40.263c29.024-7.455,54.226-21.762,76.13-42.142
			c4.945-4.601,10.012-9.033,14.651-13.977c2.626-2.799,2.594-4.949,1.007-8.161c-3.685-7.462-6.202-15.334-7.265-23.664
			c-0.579-4.538-0.058-8.915,1.356-13.125c1.45-4.313,3.856-8.215,8.858-8.986c5.159-0.795,8.875,2.007,11.829,5.869
			c4.58,5.99,4.512,6.009,8.959-0.335c2.894-4.126,6.097-7.938,10.368-10.785c3.93-2.62,8.294-4.155,12.548-2.096
			c4.396,2.126,5.214,6.833,5.51,11.419c0.225,3.485-0.563,6.863-1.436,11.057c3.537-1.386,6.375-2.666,9.321-3.611
			c4.099-1.314,6.979-0.027,8.875,4.093c2.729,5.93,2.304,11.845-0.229,17.414c-7.694,16.914-20.245,28.41-38.569,32.976
			c-2.358,0.587-4.218,1.547-5.707,3.559c-18.766,25.358-43.842,43.268-70.72,58.759c-14.886,8.58-31.001,14.702-47.425,19.88
			C745.09,683.005,740.711,683.452,736.281,683.771z"/>
		<path fill="#EADFED" d="M539.723,589.577c-1.57-5.747-4.742-10.935-5.514-16.99c-1.594-12.493,0.566-23.793,9.768-33.016
			c2.055-2.06,2.738-3.6-0.43-5.247c-19.048-9.904-26.492-27.527-31.326-46.986c-4.492-18.083-0.436-35.203,5.749-51.991
			c1.614-4.38,0.98-6.722-2.309-9.917c-11.617-11.287-16.397-24.99-12.335-41.054c1.117-4.418-2.167-7.168-3.115-10.775
			c-0.838-3.183-4.001-7.781-1.379-9.148c3.343-1.741,4.667,3.636,6.136,6.175c3.612,6.241,9.535,7.242,15.682,8.216
			c1.607,0.255,4.063-0.087,3.804,2.402c-0.206,1.993-2.439,2.098-4.152,2.326c-7.639,1.015-11.385,5.908-10.053,13.72
			c1.076,6.322,3.182,12.354,7.302,17.423c4.788,5.89,10.098,10.755,18.669,8.416c7.128-1.945,13.089-9.223,14.306-17.313
			c2.402-15.97,1.399-31.485-5.525-46.354c-1.208-2.594-1.807-5.471-2.686-8.216c0.965-0.091,1.933-0.182,2.894-0.275
			c12.467,14.771,14.808,32.208,13.012,50.601c-0.461,4.731-0.804,9.492-2.713,14.113c-2.931,7.095-8.132,11.226-15.17,13.051
			c-3.894,1.009-6.454,3.073-8.542,6.297c-14.788,22.83-14.831,45.708-1.448,69.337c9.44,16.666,24.397,22.639,42.081,24.16
			c6.383,0.549,8.901-1.74,9.773-8.033c1.839-13.29,10.369-21.289,21.686-26.445c4.021-1.832,5.097-3.742,4.706-7.586
			c-0.213-2.103-0.029-4.249,0.007-6.376c0.029-1.741,0.836-3.044,2.567-3.39c2.253-0.449,2.473,1.575,2.819,2.917
			c1.677,6.52,3.228,13.073,4.734,19.636c0.371,1.618,1.171,3.686-0.954,4.592c-2.055,0.875-3.528-0.883-4.025-2.402
			c-2.133-6.524-5.483-4.501-9.374-1.791c-11.699,8.148-12.054,25.839,0.273,32.784c15.19,8.557,31.31,13.327,48.422,4.391
			c3.106-1.622,4.655-3.02,3.614-7.104c-1.383-5.423-0.885-11.122,0.828-16.587c0.355-1.13,0.666-2.339,2.067-2.431
			c1.417-0.091,1.917,1.084,2.334,2.174c0.484,1.26,1.029,2.519,1.314,3.829c4.533,20.911,19.739,29.71,38.75,34.127
			c12.065,2.804,23.1-2.595,34.56-4.58c1.505-0.26,2.965-0.789,4.447-1.194c-0.044,1.133-0.089,2.264-0.131,3.395
			c-2.175-0.548-3.614,0.458-4.985,2.063c-1.894,2.216-4.159,4.044-6.987,4.996c-21.111,7.104-41.227,6.891-59.252-8.2
			c-4.374-3.661-6.587-3.553-9.937,1.051c-3.442,4.727-5.817,9.944-7.03,15.716c-0.84,3.994-1.271,8.148-3.153,11.929
			c-0.761-0.373-1.234-0.448-1.398-0.713c-0.499-0.81-0.915-1.677-1.296-2.549c-3.181-7.273,1.469-13.467,2.848-20.101
			c0.328-1.576,2.734-2.957,1.344-4.612c-1.63-1.941-3.719-0.047-5.247,0.654c-9.738,4.465-20.14,5.163-30.5,4.874
			c-3.75-0.104-5.237,0.887-6.544,3.787c-6.186,13.732-6.184,27.223,1.444,40.452c-2.902-0.275-5.802-0.548-8.704-0.822
			c-1.667-2.789-4.222-4.899-5.498-8.05c-4.875-12.032-1.765-23.073,4.245-33.576c1.866-3.258,3.557-5.04-1.134-7.351
			c-3.534-1.74-6.973-4.473-9.342-7.607c-4.026-5.327-8.962-6.375-15.154-5.983c-17.222,1.086-30.009,13.504-28.709,30.177
			c0.936,12.002,6.67,21.068,15.273,28.803C553.974,592.211,546.36,593.635,539.723,589.577z"/>
		<path fill="#EC80AF" d="M610.148,597.801c-7.628-13.229-7.629-26.72-1.444-40.452c1.307-2.899,2.793-3.891,6.544-3.787
			c10.36,0.29,20.762-0.409,30.5-4.874c1.528-0.701,3.618-2.595,5.247-0.654c1.39,1.655-1.016,3.036-1.344,4.612
			c-1.379,6.635-6.029,12.829-2.848,20.101c0.381,0.873,0.798,1.74,1.296,2.549c0.164,0.265,0.637,0.34,1.398,0.713
			c1.882-3.781,2.312-7.935,3.153-11.929c1.213-5.772,3.588-10.988,7.03-15.716c3.351-4.604,5.564-4.711,9.937-1.051
			c18.025,15.091,38.141,15.304,59.252,8.2c2.828-0.952,5.093-2.78,6.987-4.996c1.371-1.604,2.809-2.611,4.985-2.063
			c3.236,2.2,4.589,5.392,4.831,9.171c-0.619,18.664-14.24,25.644-28.76,31.34c-13.526,5.307-28.06,6.14-42.299,8.143
			c-11.641,1.637-23.375,2.318-35.108,2.192C629.715,599.196,619.934,598.33,610.148,597.801z"/>
		<path fill="#EADFED" d="M646.728,359.165c-10.613,9.704-15.822,22.397-17.634,36.073c-1.657,12.512-2.913,25.449,2.93,37.577
			c4.155,8.627,12.754,12.087,20.595,8.306c2.876-1.387,5.06-3.509,6.511-6.365c3.76-7.395,7.93-14.651,7.584-23.385
			c-0.044-1.141-0.139-2.505,1.169-3.01c1.655-0.638,2.464,0.698,3.132,1.854c2.358,4.077,5.341,7.507,9.409,10.002
			c1.204,0.739,2.992,1.811,1.72,3.64c-1.31,1.883-3.266,1.98-5.075,0.584c-1.657-1.277-3.178-2.732-5.489-4.744
			c-0.161,7.596-1.477,14.126-5.589,19.961c-10.179,14.442-31.671,15.206-41.94,1.102c-2.036-2.797-4.532-4.505-7.556-4.703
			c-13.106-0.862-25.889,0.48-36.955,8.411c-14.425,10.336-19.451,25.736-22.018,42.325c-0.206,1.326,0.003,2.714-0.165,4.049
			c-0.232,1.843-1.146,3.492-3.096,3.635c-1.921,0.141-2.234-1.683-2.772-3.166c-3.841-10.609-3.939-21.072,0.97-31.411
			c8.562-18.033,21.324-31.167,41.657-35.104c7.049-1.366,14.284-0.724,21.375-0.039c3.158,0.306,3.568-0.614,3.65-3.238
			c0.622-20.052,4.699-39.346,12.921-57.705C637.286,363.316,641.257,358.87,646.728,359.165z"/>
		<path fill="#EADFED" d="M722.334,434.742c-5.474,6.788-6.643,15.513-10.36,23.096c-0.854,1.741,0.327,3.337,1.021,4.926
			c3.319,7.592,6.367,15.247,7.75,23.511c0.796,4.766-0.434,9.16-1.501,13.614c-0.397,1.654-1.35,3.553-3.565,2.964
			c-1.952-0.52-1.608-2.531-1.433-3.954c1.182-9.597-2.12-17.73-7.609-25.36c-1.925-2.675-3.186-3.698-6.406-1.591
			c-3.505,2.293-7.548,3.827-11.48,5.38c-1.777,0.702-4.363,0.793-5.175-1.213c-0.974-2.403,1.871-2.446,3.198-2.992
			c13.022-5.364,18.815-16.619,23.14-28.806c1.602-4.512,3.896-8.651,5.56-13.09C717.76,432.399,720.047,433.57,722.334,434.742z"/>
		<path fill="#FFFFFF" d="M415.975,663.293c0.476-13.044,3.628-24.135,11.12-33.41c13.739-17.009,41.378-15.89,53.807,3.378
			c11.13,17.257,14.824,36.703,3.049,56.101c-6.357,10.472-25.35,18.535-37.337,14.421c-12.457-4.274-22.317-11.209-27.841-23.492
			C416.167,674.495,417.254,668.148,415.975,663.293z M438.055,661.382c-0.19,9.593,5.707,16.293,14.634,16.63
			c7.124,0.267,13.162-6.963,13.327-15.958c0.164-8.999-5.725-15.842-13.795-16.031
			C443.677,645.823,438.248,651.708,438.055,661.382z"/>
		<path fill="#FFFFFF" d="M623.723,646.851c13.985,1.083,24.395,7.982,30.682,20.398c9.328,18.418,5.876,35.86-8.081,49.932
			c-14.661,14.783-38.664,13.87-51.568-5.644c-15.747-23.816-6.667-45.785,14.044-60.604
			C612.9,648.001,617.362,647.012,623.723,646.851z M637.461,688.901c0.015-9.786-5.607-16.175-14.245-16.188
			c-9.082-0.013-15.437,7.621-15.548,18.679c-0.083,8.35,5.867,14.619,13.845,14.584
			C630.496,705.938,637.445,698.499,637.461,688.901z"/>
		<path fill="#8A9196" d="M546.947,689.444c-0.462,5.506,0.993,11.117-1.485,16.56c-3.253,7.144-6.022,8.501-13.638,6.522
			c-2.115-0.55-5.382-4.065-6.679,0.263c-1.166,3.89,0.206,7.628,4.949,9.066c2.146,0.65,4.079,0.472,6.223,0.055
			c7.188-1.399,12.787,1.076,14.004,5.926c1.684,6.703-1.592,13.361-8.109,16.017c-10.478,4.273-19.493,0.377-27.355-6.111
			c-9.315-7.687-17.712-27.079-4.922-40.718c4.221-4.5,9.498-6.658,14.824-8.596c3.315-1.208,3.828-2.728,4.001-5.743
			c0.63-10.948,0.257-21.97,2.209-32.824c0.563-3.136,1.355-6.08,5.556-6.143c4.335-0.066,5.524,2.624,6.16,6.182
			c0.407,2.271,1.587,4.462,1.675,6.717C544.784,667.596,547.879,678.358,546.947,689.444z"/>
		<path fill="#EC80AF" d="M561.124,593.392c-8.604-7.735-14.338-16.801-15.273-28.803c-1.3-16.673,11.487-29.091,28.709-30.177
			c6.192-0.391,11.128,0.657,15.154,5.983c2.37,3.134,5.808,5.867,9.342,7.607c4.691,2.311,3,4.092,1.134,7.351
			c-6.01,10.503-9.12,21.544-4.245,33.576c1.276,3.151,3.831,5.261,5.498,8.05c-8.704-0.806-17.434-1.399-26.101-2.5
			C570.603,593.876,565.888,593.442,561.124,593.392z"/>
		<path fill="#8A9196" d="M681.656,641.212c0.761,6.663-1.866,11.389-7.41,14.086c-5.455,2.653-10.051,0.2-14.076-3.608
			c-7.434-7.033-16.74-10.81-25.865-14.899c-0.7-0.315-1.472-0.462-2.178-0.764c-8.084-3.458-13.518-11.847-11.618-17.915
			c2.056-6.57,12.664-10.897,21.156-8.955c13.18,3.017,23.584,10.991,34.089,18.766
			C680.241,631.244,682.307,635.894,681.656,641.212z"/>
		<path fill="#8A9196" d="M441.551,575.131c3.744-0.326,7.309,0.767,10.801,1.665c5.819,1.495,9.507,7.214,8.704,12.613
			c-0.798,5.374-7.474,10.894-13.964,11.089c-4.647,0.139-9.108,0.588-13.63,1.944c-5.705,1.708-10.701,4.181-14.702,8.633
			c-2.582,2.875-5.325,5.67-8.856,7.332c-3.685,1.736-7.566,3.362-11.326,0.062c-3.978-3.49-5.738-7.629-3.685-12.896
			c5.189-13.31,15.685-21.079,28.117-26.66C428.846,576.292,435.211,575.592,441.551,575.131z"/>
		<path fill="#EADFED" d="M417.137,557.755c0.665-2.352-0.91-4.037-1.777-5.926c-4.433-9.655-6.487-19.672-5.127-30.342
			c0.594-4.658,3.352-8.285,5.705-11.861c2.769-4.209,2.809-8.117,1.811-12.587c-2.726-12.213-5.316-24.458-8.031-36.674
			c-0.409-1.839-1.007-3.58,0.31-6.022c2.304,3.045,3.671,5.81,4.735,8.828c2.699,7.641,5.625,15.202,8.324,22.842
			c3.025,8.566,9.137,12.406,18.043,12.343c1.913-0.015,3.899,0.118,5.723,0.638c2.016,0.575,4.718,1.592,4.402,3.918
			c-0.354,2.603-3.182,1.284-4.916,1.366c-11.739,0.562-23.913,13.661-24.62,26.148c-0.642,11.349,2.07,21.792,7.396,31.685
			c-3.829-0.227-7.235-1.852-10.707-3.265c-0.434-0.382-0.869-0.764-1.303-1.145L417.137,557.755z"/>
		<path fill="#EC80AF" d="M446.164,742.778c-0.117,12.859-6.371,20.037-17.246,19.794c-10.726-0.241-18.387-7.246-18.297-16.734
			c0.099-10.689,9.779-20.088,20.552-19.954C439.992,725.995,446.251,733.048,446.164,742.778z"/>
		<path fill="#EC80AF" d="M640.104,767.467c-0.055,10.512-6.585,17.973-15.604,17.832c-8.604-0.134-14.269-6.607-14.244-16.272
			c0.027-10.206,7.073-18.736,15.289-18.51C633.875,750.744,640.154,758.054,640.104,767.467z"/>
		<path fill="#EC80AF" d="M417.104,557.701c0.434,0.381,0.869,0.763,1.303,1.145C417.739,558.73,417.16,558.515,417.104,557.701z"/>
		<path fill="#EADFED" d="M458.075,419.553c6.997,6.314,12.259,14.07,17.072,22.111c11.067,18.486,15.737,38.771,16.174,60.127
			c0.052,2.578,1.264,3.813,3.127,5.012c7.718,4.965,14.188,11.243,19.734,18.553c2.809,3.702,4.41,7.633,4.084,12.325
			c-0.174,2.509,0.213,5.343-3.106,6.042c-3.135,0.663-5.285-1.078-6.442-3.776c-3.238-7.554-8.549-13.757-13.066-20.478
			c-1.15-1.71-1.933-4.462-4.274-4.258c-2.89,0.249-2.602,3.49-3.276,5.517c-1.832,5.513-3.65,11.012-6.662,16.016
			c-0.988,1.643-2.036,3.311-3.348,4.689c-2.829,2.97-6.562,5.23-10.298,2.882c-4.127-2.594-1.862-6.667-0.121-9.813
			c10.653-19.257,13.388-40.146,12.004-61.599c-0.772-11.971-4.927-23.316-11.081-33.701c-3.764-6.352-8.054-12.393-12.107-18.575
			C457.019,420.268,457.547,419.91,458.075,419.553z"/>
		<path fill="#8A9196" d="M438.055,661.382c0.193-9.673,5.621-15.559,14.166-15.359c8.07,0.189,13.959,7.032,13.795,16.031
			c-0.165,8.995-6.203,16.225-13.327,15.958C443.762,677.675,437.865,670.975,438.055,661.382z"/>
		<path fill="#8A9196" d="M637.461,688.901c-0.016,9.598-6.965,17.037-15.949,17.076c-7.978,0.035-13.928-6.234-13.845-14.584
			c0.111-11.058,6.466-18.693,15.548-18.679C631.854,672.725,637.475,679.115,637.461,688.901z"/>
	</g>
	<g id="XMLID_927_">
		<path id="XMLID_930_" fill="#E3007F" d="M140.431,354.509c-4.76,4.005-6.839,9.959-9.555,15.448
			c-3.044,6.151-5.999,12.337-8.986,18.516c-2.348,4.86-4.674,13.095-8.432,17.021c-2.962,3.095-4.116,2.344-6.62-1.568
			c-1.572-2.454-2.49-5.243-3.409-7.987c-3.226-9.622-5.78-19.483-8.108-29.37c3.661-1.382,7.404-4.38,10.597-6.655
			c2.606-1.858,6.34-3.874,6.955-7.158c0.235-1.252-0.185-2.197-1.36-2.729c-3.116-1.409-7.729,1.675-10.499,3.112
			c-2.181,1.131-5.352,2.267-7.821,3.863c-1.779-9.468-2.512-19.285-5.333-28.441c-0.696-2.252-4.128-2.24-4.492,0.251
			c-2.456,16.856,2.218,36.568,5.97,52.999c2.708,11.858,5.197,29.044,16.563,36.124c11.894,7.406,17.252-6.876,21.459-15.414
			c3.973-8.064,7.908-16.15,11.487-24.395c2.886-6.646,6.704-13.504,6.75-20.857C145.614,354.463,142.758,352.549,140.431,354.509z"
			/>
		<path id="XMLID_929_" fill="#E3007F" d="M200.236,336c-0.322-2.263-3.09-1.902-4.076-0.445c-3.457,5.109-4.73,11.211-8.436,16.291
			c-0.968,1.328-4.481,6.258-6.093,6.609c-5.434,1.185-10.277-7.259-12.146-10.868c-5.983-11.539-8.06-24.813-12.012-37.076
			c-0.752-2.335-3.572-0.504-3.473,1.332c0.46,8.452,2.509,16.933,4.833,25.038c2.489,8.692,5.243,18.297,12.199,24.542
			c5.057,4.544,10.614,6.489,16.137,1.997C194.679,357.313,201.64,345.853,200.236,336z"/>
		<path id="XMLID_928_" fill="#0091DA" d="M187.182,313.531c-7.12,3.217-12.309,8.364-17.851,12.972
			c-5.814,4.835-11.566,9.545-16.473,14.945c-1.741,1.914,0.764,5.067,3.721,3.372c7.27-4.164,13.543-8.971,20.009-13.834
			c5.526-4.155,11.498-8.062,15.284-13.282C193.513,315.443,190.666,311.956,187.182,313.531z"/>
	</g>
	<g id="XMLID_920_">
		<path id="XMLID_926_" fill="#FFE100" d="M280.22,189.78c-1.397,6.184-1.855,35-2.096,41.378
			c-8.753,2.099-18.021,4.784-25.172,9.416c-8.987,5.825-8.077,17.264-8.484,26.792c-1.175,27.485,1.277,54.718,7.389,81.531
			c0.346,1.523,2.49,0.558,2.253-0.822c-3.947-22.951-6.001-46.352-5.691-69.641c0.145-10.865-1.949-28.771,8.637-34.855
			c5.998-3.449,13.546-5.647,20.902-7.306c-0.02,0.769-0.043,1.54-0.063,2.297c-0.327,11.389,0.141,22.792,0.571,34.174
			c0.428,11.349,0.164,53.633,3.301,63.013c1.087,3.252,4.786,2.162,5.077-0.413c1.143-10.149-0.718-49.412-1.436-61.206
			c-0.681-11.221-1.316-22.439-1.458-33.682c-0.024-1.816,0.011-3.636,0.067-5.458c1.71-0.336,3.392-0.662,5-0.966
			c9.4-1.785,18.966-2.985,28.539-3.202c15.481-0.353,17.452,16.913,20.108,28.851c4.498,20.226,5.549,40.881,3.82,61.481
			c-6.377-0.87-12.227-2.772-18.037-5.895c-2.831-1.521-5.191,3.279-2.374,4.82c7.111,3.888,14.287,6.15,22.332,7.026
			c1.441,0.157,2.973-0.976,3.134-2.461c2.761-25.429,0.854-51.276-5.91-75.962c-2.642-9.639-4.713-22.274-16.624-23.4
			c-12.372-1.171-26.142,1.346-38.141,4.08c-0.532,0.122-1.075,0.244-1.619,0.367c0.344-6.124,0.871-34.51,0.978-40.604
			L280.22,189.78z"/>
		<path id="XMLID_925_" fill="#FFE100" d="M324.031,261.997c-0.013-0.131-0.027-0.264-0.039-0.397
			c-0.123-1.255-0.886-2.304-2.271-2.249c-0.083,0.003-0.168,0.007-0.251,0.009c-0.232,0.008-0.472,0.067-0.704,0.157
			c0.306-0.863-3.698-2.452-4.683-2.994c-1.336-0.733-2.671-1.469-4.012-2.193c2.205-4.734,4.841-9.491,5.934-14.606
			c0.532-2.498-2.447-3.724-3.855-1.57c-2.767,4.236-4.384,9.231-6.402,13.877c-3.119-1.661-6.281-3.287-9.766-3.894
			c-0.863-0.15-1.957,1.048-1.285,1.85c2.356,2.815,5.579,4.959,8.85,6.912c-1.898,4.128-3.777,8.286-4.911,12.661
			c-0.405,1.563,1.742,2.139,2.596,1.033c2.643-3.422,4.648-7.302,6.503-11.235c0.18,0.107,0.363,0.212,0.542,0.318
			c2.799,1.678,7.867,6.286,11.293,5.41C322.969,264.727,324.183,263.581,324.031,261.997z"/>
		<path id="XMLID_924_" fill="#FFE100" d="M327.76,293.272c-1.875-3.041-5.715-4.059-8.785-5.62
			c-0.406-0.206-0.808-0.422-1.213-0.63c1.63-3.092,3.099-6.277,3.819-9.629c0.251-1.163-1.261-2.173-2.183-1.299
			c-2.529,2.403-4.502,5.398-6.293,8.499c-1.71-0.915-3.413-1.847-5.088-2.813c-2.02-1.162-3.98,1.749-2.177,3.209
			c1.634,1.322,3.265,2.584,4.931,3.796c-0.479,0.877-0.956,1.748-1.44,2.599c-2.519,4.439-5.388,8.703-6.809,13.629
			c-0.598,2.071,1.953,3.721,3.482,2.056c3.841-4.187,6.127-9.626,8.798-14.606c0.125-0.232,0.253-0.465,0.379-0.698
			c0.473,0.299,0.937,0.604,1.421,0.894c3.12,1.859,6.259,4.215,9.996,3.551C327.985,295.962,328.426,294.351,327.76,293.272z"/>
		<path id="XMLID_923_" fill="#FFE100" d="M267.679,263.26c-0.45-0.218-0.914-0.433-1.383-0.642c0.516-1.48,1.011-2.968,1.509-4.457
			c0.757-2.271-2.138-3.014-3.158-1.08c-0.725,1.37-1.452,2.734-2.163,4.106c-2.505-0.76-5.111-1.151-7.651-0.733
			c-0.97,0.157-1.937,1.8-0.836,2.472c1.948,1.185,4.061,2.074,6.186,2.954c-1.221,2.695-3.04,5.294-2.649,8.313
			c0.137,1.062,1.45,1.879,2.433,1.233c2.639-1.732,3.324-4.859,4.434-7.71c0.303,0.145,0.606,0.287,0.905,0.441
			C268.194,269.645,270.616,264.681,267.679,263.26z"/>
		<path id="XMLID_922_" fill="#FFE100" d="M273.897,301.378c-1.623-0.874-3.438-1.343-5.276-1.708
			c0.166-0.366,0.347-0.728,0.504-1.098c1.04-2.443,2.504-5.026,2.009-7.704c-0.111-0.6-0.844-0.787-1.316-0.497
			c-2.351,1.446-3.522,4.345-4.945,6.662c-0.353,0.575-0.701,1.149-1.049,1.724c-2.658-0.54-5.226-1.055-7.974-1.063
			c-1.312-0.004-1.572,1.885-0.54,2.456c1.966,1.088,3.998,1.812,6.097,2.504c-0.602,0.956-1.194,1.917-1.831,2.854
			c-2.25,3.311,2.218,6.38,4.345,2.823c0.796-1.33,1.582-2.673,2.34-4.032c2.096,0.718,4.229,1.351,6.406,1.415
			C274.803,305.777,275.814,302.413,273.897,301.378z"/>
		<path id="XMLID_921_" fill="#E3007F" d="M308.474,185.827c7.196-2.118,4.607-14.461-2.588-12.314
			c-10.321,3.077-20.965,4.217-31.504,6.274c-8.649,1.69-20.218,4.063-26.858,9.596c-2.612,2.177,0.029,5.447,1.515,5.76
			c7.653,1.604,17.827-2.445,25.624-3.382C276.515,191.538,300.852,188.068,308.474,185.827z"/>
	</g>
	<g id="XMLID_916_">
		<path id="XMLID_919_" fill="#E3007F" d="M404.605,150.802c-4.406,10.853-8.672,21.749-13.413,32.464
			c-3.262,7.38-10.283,15.877-8.525,24.192c0.535,2.533,2.628,4.718,5.426,3.632c8.514-3.304,11.44-16.201,14.556-24.191
			c4.222-10.823,7.313-22.013,9.29-33.446C412.696,149.091,406.464,146.226,404.605,150.802z"/>
		<path id="XMLID_918_" fill="#0091DA" d="M472.982,244.185c-3.565-5.714-7.249-11.742-12.247-16.307
			c-1.037-0.949-2.595,0.434-2.158,1.633c2.001,5.486,4.879,10.727,7.885,15.789c-0.438,0.15-9.147,7.671-13.172,11.193
			c-2.052,1.796-4.366,4.013-6.502,5.691c-3.514,2.761-6.398-10.085-7.466-14.654c-0.918-3.925-3.886-30.575-5.81-34.127
			c-0.839-1.548-2.651-1.177-3.325,0.286c-1.872,4.063,1.769,31.591,2.384,35.93c0.91,6.422,2.673,15.989,6.897,21.129
			c3.355,4.081,7.71,2.043,11.078-0.756c6.647-5.521,19.564-17.075,19.726-17.281c2.043,4.229,4.442,8.494,8.132,11.053
			c1.423,0.989,3.413-0.504,3.313-2.098C481.313,255.283,476.305,249.509,472.982,244.185z"/>
		<path id="XMLID_917_" fill="#E3007F" d="M485.521,158.181c-2.363-1.387-5.075-1.998-7.668-2.86
			c-5.158-1.712-10.294-3.43-15.281-5.588c-2.115-0.915-3.691,2.834-1.746,3.938c6.8,3.856,15.236,9.652,23.171,10.373
			C487.413,164.356,488.174,159.74,485.521,158.181z"/>
	</g>
	<path id="XMLID_915_" fill="#0091DA" d="M609.036,215.535c-5.907-0.768-11.641,1.432-17.398,2.745
		c-5.529,1.263-11.057,2.535-16.587,3.8c0.121-7.544-0.507-15.213-1.058-22.81c4.088-1.036,8.349-1.838,11.845-4.111
		c2.319-1.507,1.567-6.222-1.395-6.435c-3.662-0.264-7.392,0.877-10.967,2.248c-0.382-7.645-0.43-15.342-0.875-22.99
		c7.542-1.383,14.937-3.19,22.076-6.167c-0.016-0.021-0.031-0.044-0.046-0.066c5.257-2.367,2.237-11.799-3.383-9.243
		c-6.163,2.8-12.932,4.453-19.792,5.932c-0.066-0.054-0.133-0.102-0.21-0.134c0.934-9.943-2.793-20.308-7.534-28.842
		c-1.525-2.746-5.347-0.637-4.254,2.158c3.6,9.206,3.663,18.072,4.327,27.764c0.016,0.24,0.059,0.454,0.107,0.665
		c-9.357,2.024-18.53,4.391-26.219,9.572c-1.708,1.15-0.776,3.947,1.264,3.777c9.387-0.788,18.859-2.978,28.169-4.47
		c0.336-0.054,0.672-0.113,1.007-0.168c-0.444,7.54-0.304,15.168-0.365,22.661c-0.005,0.614-0.012,1.237-0.019,1.858
		c-5.335,2.142-10.013,4.749-14.798,7.978c-1.733,1.17-0.686,4.836,1.59,4.13c4.403-1.366,8.769-2.807,13.153-4.214
		c-0.012,7.363,0.184,14.831,1.32,21.916c0.017,0.114,0.054,0.209,0.076,0.315c-10.204,2.06-22.312,3.332-31.095,8.349
		c-0.842,0.481-1.098,2.237,0.126,2.445c10.912,1.854,23.621-2.26,34.351-4.261c6.785-1.264,13.548-2.604,20.294-4.059
		c5.903-1.273,12.157-1.863,17.245-5.21C612.157,219.245,611.747,215.886,609.036,215.535z"/>
	<g id="XMLID_909_">
		<path id="XMLID_914_" fill="#E3007F" d="M674.211,180.395c-1.838-1.891-4.001-1.87-6.516-2.103
			c-2.478-0.232-4.97-0.381-7.454-0.567c-2.984-0.223-4.144,4.898-1.114,5.682c2.376,0.614,4.748,1.261,7.137,1.822
			c2.543,0.595,4.766,1.409,7.149,0.05C675.02,184.362,675.546,181.764,674.211,180.395z"/>
		<path id="XMLID_913_" fill="#E3007F" d="M677.256,219.216c-0.353-0.972-2.229-2.1-3.115-2.452c-0.873-0.346-2.08-0.18-3.005-0.312
			c-2.343-0.338-4.718-0.814-7.018-1.375c-3.088-0.753-4.732,3.446-1.905,4.951c3.71,1.974,7.784,3.343,12.03,3.395
			c1.068,0.013,2.17-0.796,2.627-1.728C677.257,220.911,677.574,220.091,677.256,219.216z"/>
		<path id="XMLID_912_" fill="#E3007F" d="M684.667,250.494c-4.776,4.006-9.108,8.616-13.757,12.787
			c-3.22,2.888-11.171,7.21-10.971,12.394c0.012,0.335,0.221,0.579,0.507,0.726c4.303,2.216,10.853-4.762,14.022-7.257
			c5.13-4.034,10.396-8.389,14.701-13.304C691.694,252.956,687.947,247.74,684.667,250.494z"/>
		<path id="XMLID_911_" fill="#FFE100" d="M731.427,138.901c0.353-4.529-0.039-8.687-1.524-12.984
			c-0.352-1.013-1.48-1.454-2.438-1.544c-7.085-0.676-13.383,1.228-18.722,5.6c-0.332-4.311-0.718-8.61-1.946-12.766
			c-0.559-1.894-3.274-1.596-3.64,0.281c-1.243,6.381-0.713,12.913-0.735,19.387c-0.015,5.369-0.736,10.752,1.499,15.709
			c1.284,2.851,5.037,1.331,5.54-1.169c1.729-5.048,0.228-10.907-0.279-16.115c-0.035-0.357-0.063-0.714-0.095-1.071
			c0.054-0.025,0.105-0.028,0.159-0.059c4.67-2.813,10.286-4.36,15.752-3.898c0.63,3.197,0.646,6.373,0.275,9.665
			c-0.181,1.599-0.343,3.556-0.757,5.146c-0.739,2.839-1.465,3.579-4.241,3.027c-1.48-0.295-3.023,1.539-2.71,2.941
			c1.476,6.604,9.411,4.183,11.752-0.556C731.009,147.067,731.136,142.634,731.427,138.901z"/>
		<path id="XMLID_910_" fill="#E3007F" d="M774.521,278.965c-9.543-10.046-22.253-18.031-33.037-26.774
			c-4.295-3.482-8.529-7.286-12.847-11.002c2.565-7.452,4.805-14.924,6.9-21.97c1.701-5.722,3.88-12.948-1.986-17.124
			c-4.827-3.435-11.654-1.611-15.425,2.555c0.654-3.366,1.499-6.696,2.067-10.081c0.314-1.872-2.634-2.099-3.06-0.367
			c-1.363,5.545-4.107,11.09-5.189,16.708c-0.445,2.313-1.6,6.032,1.61,6.813c1.23,0.3,2.041-0.811,2.372-1.862
			c0.696-2.221,1.112-4.596,1.629-6.923c1.311-0.978,3.844-2.548,6.911-2.415c8.921,0.386,5.714,7.385,3.673,13.692
			c-1.729,5.343-3.623,10.63-5.613,15.883c-3.741-2.982-7.593-5.766-11.657-8.084c-1.193-0.681-2.501,0.74-1.729,1.886
			c3.067,4.538,6.813,8.719,10.844,12.682c-4.469,10.677-9.983,20.987-13.968,31.8c-1.973,3.171,2.541,6.947,5.199,3.214
			c6.117-8.601,10.884-18.8,14.863-29.323c4.06,3.615,8.223,7.081,12.177,10.49c9.845,8.494,20.845,19.189,32.59,24.857
			C773.611,284.955,776.865,281.431,774.521,278.965z"/>
	</g>
	<g id="XMLID_902_">
		<g id="XMLID_906_">
			<path id="XMLID_908_" fill="#0091DA" d="M864.088,182.235c-0.445-0.268-3.492-2.523-4.455-3.039
				c-2.147-1.153-4.391-2.158-6.621-3.182c0.982-1.996,1.964-3.99,2.962-5.977c0.596-1.188-1.279-2.067-1.969-1.027
				c-1.261,1.897-2.531,3.787-3.799,5.678c-0.185-0.09-0.373-0.176-0.556-0.265c-5.89-2.929-11.932-6.391-18.368-7.873
				c-1.618-0.373-2.927,1.568-1.781,2.836c4.348,4.817,10.542,8.133,16.21,11.192c0.138,0.075,0.279,0.155,0.417,0.231
				c-0.221,0.332-0.445,0.663-0.665,0.995c-1.805,2.742-4.177,5.49-4.225,8.842c-0.015,1.037,1.102,1.887,2.087,1.283
				c3.115-1.91,4.392-5.332,6.017-8.535c0.105-0.206,0.204-0.413,0.308-0.619c3.592,2.012,7.34,3.982,11.251,4.699
				C863.581,187.965,866.069,184.307,864.088,182.235z"/>
			<path id="XMLID_907_" fill="#0091DA" d="M843.561,210.982c0.091,0.075,0.161,0.157,0.239,0.237
				C843.911,211.287,843.866,211.232,843.561,210.982z"/>
		</g>
		<path id="XMLID_905_" fill="#0091DA" d="M900.874,207.042c0.366-1.923-0.382-3.809-2.11-4.773
			c-2.48-1.386-5.089-3.071-7.773-4.734c1.773-1.824,3.466-3.631,5.068-5.302c1.292-1.348-0.445-3.233-1.852-2.001
			c-2.11,1.844-4.274,3.612-6.471,5.341c-3.955-2.305-8.033-4.303-12.081-5.022c-1.686-0.3-3.549,2.025-2.657,3.579
			c1.599,2.783,4,5.242,6.769,7.423c-3.228,2.213-6.643,4.295-9.341,7.053c-1.343,1.371,0.08,3.675,1.913,2.993
			c4.026-1.503,7.86-4.14,11.451-7.207c3.658,2.347,7.556,4.317,10.924,5.987c1.638,0.812,3.961,0.303,5.083-1.18
			C900.343,208.479,900.705,207.934,900.874,207.042z"/>
		<path id="XMLID_904_" fill="#FFE100" d="M871.748,273.93c-1.421-2.745-2.85-5.491-4.786-7.908
			c-1.111-1.386-2.926,0.055-2.579,1.537c0.401,1.701,0.977,3.285,1.611,4.871c-4.828,0.885-9.294,3.205-14.142,3.996
			c-0.94,0.153-2.569,0.476-3.51,0.113c-3.275-1.265-2.356-3.689-1.831-5.697c0.72-2.756,1.686-5.621,2.838-8.282
			c0.405-0.025,0.814-0.055,1.216-0.078c5.737-0.328,12.527,0.493,17.095-3.344c0.991-0.831,0.838-2.488-0.193-3.179
			c-4.799-3.213-11.775-1.436-17.233-0.812c-0.165,0.019-0.334,0.038-0.499,0.056c0.253-1.327,0.476-2.658,0.658-4
			c0.654-0.015,1.292-0.035,1.893-0.048c4.024-0.076,9.101-0.287,11.075-4.311c0.484-0.981,0.257-2.385-0.6-3.096
			c-2.957-2.447-7.265-1.035-10.762-0.572c-0.209,0.028-0.429,0.042-0.642,0.062c0.328-2.616,0.721-5.229,1.347-7.81
			c0.156-0.641-0.823-0.697-1.039-0.182c-1.095,2.603-2.218,5.364-3.161,8.2c-2.816,0.177-5.663,0.517-7.436,2.742
			c-0.347,0.438-0.492,1.301-0.197,1.803c1.216,2.065,3.382,2.838,5.726,3.102c-0.233,1.508-0.371,3.017-0.377,4.517
			c-5.124,0.611-10.385,1.419-15.044,3.395c-1.419,0.6-1.485,3.368,0.216,3.65c4.749,0.787,8.133,0.594,13.046,0.243
			c-3.9,5.597-6.903,14.312-0.283,18.308c6.339,3.824,17.275-0.765,23.198-3.67c0.189-0.092,0.355-0.21,0.511-0.338
			c0.495,1.367,0.978,2.734,1.523,4.083c0.592,1.466,2.973,1.236,3.553-0.115C874.068,278.532,872.984,276.322,871.748,273.93z"/>
		<path id="XMLID_903_" fill="#FFE100" d="M891.265,353.309c-2.126-9.22-16.076-14.418-24.006-17.587
			c-0.032-0.013-0.066-0.024-0.098-0.038c8.545-10.054,18.089-29.777,8.631-39.45c-5.321-5.442-14.072-4.187-20.851-3.252
			c-8.112,1.121-16.395,3.177-23.369,7.581c-0.113-1.037-0.22-2.078-0.336-3.114c-0.159-1.403-2.228-1.458-2.443-0.038
			c-1.385,9.164-1.784,18.395-0.55,27.63c0.479,3.591,5.23,2.454,5.13-0.855c-0.205-6.763-0.748-13.515-1.434-20.243
			c4.563-0.818,9.395-2.214,14.284-3.41c-1.125,2.108-1.417,4.656-1.929,7.018c-0.846,3.9-1.131,7.868-1.383,11.845
			c-0.075,1.19,0.326,2.297,1.466,2.824c0.81,0.375,1.158,0.314,1.972-0.043c0.807-0.353,1.62-1.303,1.65-2.221
			c0.146-4.304,0.497-8.592,0.677-12.893c0.099-2.372,0.661-4.844,0.015-7.109c2.765-0.623,5.536-1.125,8.278-1.397
			c-0.875,4.171-1.724,8.342-2.488,12.54c-0.89,4.876-2.909,10.216-1.631,15.094c0.299,1.146,1.677,0.83,2.175,0.066
			c2.671-4.088,2.586-9.95,3.324-14.727c0.677-4.384,1.253-8.774,1.8-13.173c2.439-0.051,4.844,0.131,7.186,0.672
			c14.466,3.329-0.227,25.921-5.967,34.553c-9.499-3.185-19.439-5.123-29.414-5.823c-20.612-1.445-50.296,1.06-65.199,17.273
			c-1.288,1.401,0.697,3.149,2.134,2.126c16.835-11.984,41.065-15.015,61.261-13.492c10.459,0.789,20.768,2.989,30.623,6.578
			c5.379,1.96,10.743,4.24,15.688,7.133c4.037,2.36,7.868,7.091,12.4,8.174C890.135,355.861,891.584,354.691,891.265,353.309z"/>
	</g>
	<path id="XMLID_901_" fill="#E3007F" d="M1010.397,374.814c-9.803-8.372-22.121-13.383-34.387-17.032
		c2.595-7.708,4.254-15.646,4.63-23.612c7.548-0.692,21.361-8.19,16.52-16.104c-2.311-3.78-8.082-5.371-12.03-6.514
		c-3.937-1.139-8.753-2.281-12.146,0.718c-1.82,1.61-0.042,4.077,2.059,2.836c3.041-1.797,13.936,2.801,16.095,5.176
		c1.665,1.83,0.096,2.721-1.726,3.969c-1.322,0.906-2.874,1.61-4.332,2.257c-2.312,1.025-4.873,1.497-6.963,2.929
		c-1.052,0.72-1.684,2.47-1.185,3.634c-2.122,7.855-4.376,15.536-7.096,22.989c-10.336-2.721-21.655-4.686-31.978-3.265
		c-1.275,0.176-2.033,2.076-0.438,2.462c10.18,2.46,20.25,3.796,30.245,6.448c-3.935,9.685-8.832,18.942-15.489,27.621
		c-6.128,7.989-13.233,15.346-21.253,21.45c-10.008,7.617-20.758,7.746-31.992,2.565c-1.501-0.693-2.897,1.181-1.797,2.401
		c17.45,19.418,41.323-1.492,53.887-15.696c9.224-10.428,17.411-22.999,22.85-36.482c0.749,0.249,1.501,0.474,2.252,0.747
		c10.801,3.91,20.588,9.665,31.023,14.363C1009.305,379.646,1012.648,376.733,1010.397,374.814z"/>
</g>
</svg>
