<svg id="svg2" xmlns="http://www.w3.org/2000/svg" viewBox="0 0 271.96 264.25"><defs><style>.cls-1{fill:#fff;}.cls-2{fill:#008061;}.cls-3{fill:#f5821f;}.cls-4{fill:#ed1b2d;}</style></defs><g id="g2862"><polygon id="polygon10" class="cls-1" points="1.38 2 270.82 2 270.82 262.94 1.38 262.94 1.38 2"/><polygon id="polygon12" class="cls-2" points="0 0 271.96 0 271.96 264.25 0 264.25 0 0"/><path id="path14" class="cls-1" d="M167.68,246.35v10.58H102.45v-10.6H53.09c-4.82,0-8.75-5-8.75-11.25L23.69,26.2A11,11,0,0,1,34.46,14.93H233.92A11,11,0,0,1,244.65,26.2L224.23,235.08c0,6.21-3.93,11.25-8.75,11.25l-47.8,0Z" transform="translate(0 0.51)"/><path id="path16" class="cls-3" d="M60,45.52H193.54c-13.14,4.93-53.17,32-63.16,50.24H60.13L60,45.52Z" transform="translate(0 0.51)"/><path id="path18" class="cls-4" d="M166.43,189.49c-1.9,18.19-2,40.35-2,63.63H106.57a633.65,633.65,0,0,1,2.88-63.63Z" transform="translate(0 0.51)"/><polygon id="polygon20" class="cls-2" points="76.9 163.7 76.9 170.75 67.64 170.75 67.64 177.81 76.9 177.81 76.9 185.89 55.74 185.89 55.74 148.28 76.9 148.28 76.9 156.66 67.64 156.66 67.64 163.7 76.9 163.7"/><polygon id="polygon22" class="cls-2" points="126.1 163.7 126.1 170.75 116.88 170.75 116.88 177.81 126.1 177.81 126.1 185.89 104.98 185.89 104.98 148.28 126.1 148.28 126.1 156.66 116.88 156.66 116.88 163.7 126.1 163.7"/><polygon id="polygon24" class="cls-2" points="180.32 163.7 180.32 170.75 171.06 170.75 171.06 177.81 180.32 177.81 180.32 185.89 159.16 185.89 159.16 148.28 180.32 148.28 180.32 156.66 171.06 156.66 171.06 163.7 180.32 163.7"/><polygon id="polygon26" class="cls-2" points="92.77 148.28 92.77 177.81 102.02 177.81 102.02 185.89 80.86 185.89 80.86 148.28 92.77 148.28"/><polygon id="polygon28" class="cls-2" points="143.18 173.7 138.66 148.28 128.28 148.28 134.19 185.89 149.47 185.89 156.63 148.28 147.8 148.28 143.18 173.7"/><polygon id="polygon30" class="cls-2" points="185.34 148.28 196.77 148.28 196.77 185.89 185.34 185.89 185.34 148.28"/><path id="path32" class="cls-2" d="M196.77,158.94c.62-4.12,6.46-3,6.46-.66v27.11H214.7V153.5c0-6.76-9.53-9.48-17.85-3.52l-.08,9Z" transform="translate(0 0.51)"/><path id="path34" class="cls-4" d="M171.8,142.48c1.17-14.4,20.89-37.9,40-44.08V42.87c-52.55,23.51-86.7,59.06-94.09,99.47l54.1.14Z" transform="translate(0 0.51)"/></g></svg>