<svg id="圖層_1" data-name="圖層 1" xmlns="http://www.w3.org/2000/svg" viewBox="0 0 256 256"><defs><style>.cls-1{fill:#fefefe;fill-opacity:0;}.cls-2{fill:#2147a5;stroke:#2147a5;}.cls-2,.cls-3{stroke-miterlimit:2.16;stroke-width:0.05px;}.cls-3{fill:red;stroke:red;}</style></defs><path class="cls-1" d="M0,0H256V256H0V0M125.25,3C109,3.5,92.59,6.31,77.61,12.88A125.34,125.34,0,0,0,29.7,50.12,119,119,0,0,0,5.07,101.54c-3.61,16.11-2.7,32.82-.38,49,3.66,24.2,15.74,46.73,32.66,64.3C49.91,227.27,64.46,238,81,244.57a114.9,114.9,0,0,0,45.16,8.79c21.88.16,43.87-5,63-15.79a120.83,120.83,0,0,0,34.06-28.46c11.38-13.58,20.38-29.32,25.23-46.4,9.21-34.28,4.69-72.92-15.09-102.78A131.43,131.43,0,0,0,186.1,16.55C167.45,7,146.27,1.78,125.25,3Z" transform="translate(0 0)"/><path class="cls-2" d="M125.25,3c21-1.24,42.2,3.93,60.85,13.53a131.43,131.43,0,0,1,47.16,43.38c19.78,29.86,24.3,68.5,15.09,102.78-4.85,17.08-13.85,32.82-25.23,46.4a120.83,120.83,0,0,1-34.06,28.46c-19.08,10.78-41.07,16-62.95,15.79A114.9,114.9,0,0,1,81,244.57c-16.49-6.57-31-17.3-43.6-29.69-16.92-17.57-29-40.1-32.66-64.3-2.32-16.22-3.23-32.93.38-49A119,119,0,0,1,29.7,50.12,125.34,125.34,0,0,1,77.61,12.88C92.59,6.31,109,3.5,125.25,3m-5.39,14.5C107.47,18.49,95.07,21,83.64,26A110.1,110.1,0,0,0,43.12,56.59a106.67,106.67,0,0,0-22.69,42c-5,17.09-4.37,35.3-1.3,52.66,2.59,13.31,7.49,26.3,15.36,37.4,10.35,15.85,25.23,28.3,41.5,37.67,15.63,8.41,33.42,13.26,51.2,12.51a110.71,110.71,0,0,0,46.19-9.38c33.25-15,58.53-47.27,64.19-83.43,5.06-34-5.23-71-30.18-95.23a111.56,111.56,0,0,0-44.79-28.4C148.91,17.57,134.25,16.38,119.86,17.52Z" transform="translate(0 0)"/><path class="cls-1" d="M119.86,17.52c14.39-1.14,29.05.05,42.74,4.85a111.56,111.56,0,0,1,44.79,28.4C232.34,75,242.63,112,237.57,146c-5.66,36.16-30.94,68.39-64.19,83.43a110.71,110.71,0,0,1-46.19,9.38c-17.78.75-35.57-4.1-51.2-12.51-16.27-9.37-31.15-21.82-41.5-37.67-7.87-11.1-12.77-24.09-15.36-37.4-3.07-17.36-3.66-35.57,1.3-52.66a106.67,106.67,0,0,1,22.69-42A110.1,110.1,0,0,1,83.64,26c11.43-5,23.83-7.49,36.22-8.46M80.3,55c0,11.32,0,22.69,0,34-4.47-3.5-9.11-6.84-13.53-10.46-6.36,5.29-11.8,11.65-18.21,17,3,4.15,6,8.25,8.89,12.45,3.77-2.86,7.38-5.93,11.1-8.89,2.75,2.21,5.39,4.69,8,7.11l3.82-2.69c.06,7.06,0,14.12,0,21.12-5-3.55-9.92-7.16-15-10.61C59.72,119.43,54.11,124.87,49,130.8c3.18,2.64,6.2,5.5,9.17,8.41,2.58-2.48,5.12-5,7.7-7.44,3.24,2.81,6.47,5.66,9.65,8.57,1.78-1.29,3.5-2.64,5.28-4v12.94H54.43v16.17H80.84v16.7H54.43v16.17h67.91v-16.7c-9,0-17.89.05-26.84-.17-.11-5.28,0-10.61.06-15.9,8.73-.16,17.51-.1,26.24-.1V148.75c-8.94,0-17.89.05-26.84-.16,0-2.48-.11-4.91-.11-7.33,5.12-3.51,10.3-6.9,15.53-10.3,2.26,3.35,4.58,6.63,6.84,10,3.29-3,6.36-6.09,9.65-9.05-5.45-6.47-11.05-12.83-16.55-19.29-5.23,3.45-10.13,7.22-15.41,10.56-.06-5.12-.06-10.24-.06-15.31,4.8-3.23,9.65-6.36,14.56-9.48,2.42,2.42,4.85,4.85,7.22,7.33,3.39-3.29,6.57-6.74,9.65-10.3-5.5-5.49-10.57-11.42-16.17-16.81-5,3.29-9.92,6.74-15,9.81-.22-5.88-.22-11.75,0-17.63,8.35-.21,16.76-.16,25.17-.16V55H80.3m52.82,0c.27,16.17-.86,32.34-.54,48.51h62V55H133.12m0,60.36v17.25h16.17v15.09H133.66v50.66h60.9V182.16H149.83v-16.7h45.81V115.33Z" transform="translate(0 0)"/><path class="cls-3" d="M80.3,55h39.89V70.6c-8.41,0-16.82,0-25.17.16-.17,5.88-.17,11.75,0,17.63,5.12-3.07,10-6.52,15-9.81,5.6,5.39,10.67,11.32,16.17,16.81-3.08,3.56-6.26,7-9.65,10.3-2.37-2.48-4.8-4.91-7.22-7.33-4.91,3.12-9.76,6.25-14.56,9.48,0,5.07,0,10.19.06,15.31,5.28-3.34,10.18-7.11,15.41-10.56,5.5,6.46,11.1,12.82,16.55,19.29-3.29,3-6.36,6.09-9.65,9.05-2.26-3.34-4.58-6.62-6.84-10-5.23,3.4-10.41,6.79-15.53,10.3,0,2.42.06,4.85.11,7.33,9,.21,17.9.16,26.84.16v16.71c-8.73,0-17.51-.06-26.24.1-.11,5.29-.17,10.62-.06,15.9,9,.22,17.89.17,26.84.17v16.7H54.43V182.16H80.84v-16.7H54.43V149.29H80.84V136.35c-1.78,1.35-3.5,2.7-5.28,4-3.18-2.91-6.41-5.76-9.65-8.57-2.58,2.43-5.12,5-7.7,7.44-3-2.91-6-5.77-9.17-8.41,5.07-5.93,10.68-11.37,16.23-16.81,5.06,3.45,10,7.06,15,10.61,0-7,.11-14.06,0-21.12l-3.82,2.69c-2.59-2.42-5.23-4.9-8-7.11-3.72,3-7.33,6-11.1,8.89-2.91-4.2-5.93-8.3-8.89-12.45,6.41-5.33,11.85-11.69,18.21-17,4.42,3.62,9.06,7,13.53,10.46C80.3,77.66,80.3,66.29,80.3,55Z" transform="translate(0 0)"/><path class="cls-3" d="M133.12,55h61.44v48.51h-62c-.32-16.17.81-32.34.54-48.51M146.59,70.6V86.77H180V70.6Z" transform="translate(0 0)"/><path class="cls-1" d="M146.59,70.6H180V86.77H146.59Z" transform="translate(0 0)"/><path class="cls-3" d="M133.12,115.33h62.52v50.13H149.83v16.7h44.73v16.17h-60.9V147.67h15.63V132.58H133.12V115.33m31.26,16.17v16.71c5,0,9.92.22,14.87-.16a7.12,7.12,0,0,1,.6-.54c.37-5.34.16-10.67.16-16Z" transform="translate(0 0)"/><path class="cls-1" d="M164.38,131.5H180c0,5.34.21,10.67-.16,16a7.12,7.12,0,0,0-.6.54c-4.95.38-9.91.16-14.87.16Z" transform="translate(0 0)"/></svg>