<svg id="圖層_1" data-name="圖層 1" xmlns="http://www.w3.org/2000/svg" viewBox="0 0 1080 1080"><defs><style>.cls-1{fill:#fff;}.cls-2{fill:#008dd3;}.cls-3{fill:#cf1c7d;}.cls-4{fill:#fae03e;}.cls-5{fill:#b3b3b4;}</style></defs><rect class="cls-1" width="1080" height="1080"/><path class="cls-2" d="M514.4,332.48c6.34-1.69,12.17,1.83,17.35,5,1,.61,4.66,3,10.41,6.85,8.12-3.15,16.17-6.47,24.27-9.65,5.77-2.26,19.12-4.39,22.91-9.59,2.18-3,1.76-5.86-.15-8.84-4.33-6.76-16.35-12.24-22.85-16.9-16-11.44-42.17-28.77-59.33-38.31-14.38-8-18.17-6.28-34.68-5.09-5.5.18-70.39,8.47-73.35,15.44a4.44,4.44,0,0,0,.56,4.36c4.81,5.37,12.25,8.57,18.54,11.93a290,290,0,0,1,28.15,16.85c16.55,11.4,33.29,22.24,50.44,32.73,2.34,1.43,4.78,3.14,7.29,4.83C506.37,337.94,509.46,333.79,514.4,332.48Z"/><path class="cls-3" d="M809.57,525.86c-5.81-4-217-148-267.41-181.48-2.06.8-4.12,1.6-6.2,2.37-5.24,1.95-10.71,4-16.39,3-5.45-1-10.68-4.24-15.61-7.57a.43.43,0,0,1,0,.07c-5.2,9.09-9.17,19.16-13.12,28.85-4.05,9.95-9.19,21.08-13.36,31.07-5,12-9.43,23.47-6.61,36.73,3.08,14.5,16.19,25.8,25.55,36.42q39.86,45.21,79.62,90.5c11.84,13.46,90.48,98.54,102,108.07,11.08,9.17,41.79,37.26,57.81,33.09,14.38-3.75,21.52-18,28.71-29.6,9.88-16,21-31.06,31.4-46.67,9.7-14.58,18.94-29.69,25.51-46C825.37,574.93,843.48,549,809.57,525.86Z"/><path class="cls-4" d="M519.57,349.71c5.68,1,11.15-1,16.39-3,2.08-.77,4.14-1.57,6.2-2.37-5.75-3.81-9.42-6.24-10.41-6.85-5.18-3.22-11-6.74-17.35-5-4.94,1.31-8,5.46-10.44,9.66C508.89,345.47,514.12,348.74,519.57,349.71Z"/><path class="cls-5" d="M455.44,519.52c-12.08,6-21.43,14.59-35.17,17.74-15.28,3.51-29.5,2.32-43.58-4.72-1.76-.89-4.21,1.41-2.61,3,12.43,12.61,29.76,14.7,46.65,11.29,13.71-2.77,31.21-9.47,39.18-21.66C461.93,522.1,459.2,517.64,455.44,519.52Z"/><path class="cls-5" d="M784.42,359.07c-18.18-17.63-49.94-31.11-75.81-25.2A2.62,2.62,0,0,1,706,333c-8.82-10.87-22.11-18.1-36.39-17.87a41.58,41.58,0,0,0-7.57.84,2.68,2.68,0,0,1-2.89-1.33A42.41,42.41,0,0,0,611.58,294a2.65,2.65,0,0,1-3.12-1.56c-5.85-15.46-20.21-23.18-35.94-25.3a2.67,2.67,0,0,1-2.32-2.74c.88-21.93-5.61-45-4.89-66.45,1.08-32.53,17.13-59.64,45.88-75.24,28.54-15.48,61.46-15.54,91.63-4.77,30.78,11,60.06,32.75,78.47,59.89,8.84,13,15.17,28.25,15.19,44.19,0,20.79-10.33,41.33-21.65,58.15-8.8,13.09-19.31,25.08-34.4,30.78-2.94,1.1-2.1,5.87,1.14,4.79,18.23-6.1,30.82-20.38,41.46-35.79,12.71-18.4,23.51-38.78,23.16-61.76-.59-40-32.44-74.24-63.89-95.11-34.65-23-78.34-33.9-118.55-19.8-35.33,12.39-63,41-68.93,78.62-3.6,22.86.67,45.55,3.14,68.26a103.08,103.08,0,0,1,.54,14.17,2.63,2.63,0,0,1-2.43,2.52,78.26,78.26,0,0,0-8.34,1.24c-15.12,3.14-55.84,22.38-34,42.63,17.78,16.46,42.35-2.46,50.36-19.44a61.31,61.31,0,0,0,4.7-14.47c.76.08,1.53.13,2.28.23,14.32,1.94,23.2,9.54,27,19.39a2.66,2.66,0,0,1-1.23,3.31A87,87,0,0,0,573,319.45c-7,8.19-18.63,20.17-17.28,32,1,9.08,9.15,13.62,17.49,10.49,21-7.86,38.25-32.94,37.83-55.84a2.64,2.64,0,0,1,2.14-2.71c14.15-2.36,28.8,1.64,36.59,13.51a2.63,2.63,0,0,1-.91,3.76c-12.75,6.9-22.53,19.47-24.88,33.87-1.44,8.8,1.35,18.59,11.83,18.68,11.2.1,20.06-10.37,24.55-19.54a41.3,41.3,0,0,0,3.75-24.35,2.66,2.66,0,0,1,2.44-3,36,36,0,0,1,27.65,9.9,2.65,2.65,0,0,1-.29,4.1c-14.67,10.25-25.53,30.12-10.51,44.79,6.93,6.77,17.37,5.87,24.2-.43,7.52-6.93,10.06-17.83,8.85-27.71A45.17,45.17,0,0,0,714,346.92a2.64,2.64,0,0,1,2.26-3.56c23.24-1.94,50.59,12.37,64.11,28.93,35.9,44,13,103.21-7.25,147.9-4.63,10.21-149.43-89.36-211.81-129.57-33.55-21.63-67.26-43-100.92-64.44a2.64,2.64,0,0,1-1.1-3c8.19-25.5,16.32-51,24.57-76.5a7,7,0,0,0-6.56-9.13A232.63,232.63,0,0,0,363.89,266.4c-2.48,1.36-3.58,5.42-.82,7.16,27.9,17.62,56.72,35.95,84.39,53.92a2.72,2.72,0,0,1,1.07,3c-7.45,28.26-13.57,43.86-21.94,64.82a2.67,2.67,0,0,1-4.63.8c-21.54-28.76-43.15-57.41-65.48-85.58a6.49,6.49,0,0,0-9.67-.54c-12.64,12.68-22.66,66.77-25.89,88.05-3.32,22,.58,70.45,11,94.28,9.92,22.7,16.33,57.14,15.31,78-1.09,22.18-31.68,69-36.76,77.62-6,10.3-9,24.26-1.35,34.63,8.58,11.57,43.5,8.37,44.69,11.26,2.82,6.82-1.22,15-21.07,34.51-13.81,13.58,6.43,21.72,5.17,33-.7,6.23-6,12.91-6.4,19.85-.54,10.48,10.06,18.7,8.44,23.4-12.92,37.26-9.49,56.67,8.71,73.11C415.76,938.31,576.73,791.94,668.8,645c2.81-4.48-.7-10.08-3.92-5.36-64.5,94.68-140.28,168.19-212.1,216.52-30.72,20.67-81,34.79-99.65,14.85-11.7-12.51-21.81-23.25-7.07-61.2,4.35-11.21-8.71-20.67-7.08-29.19s3.86-12.24,7.8-20.13c2.43-4.87-12-17.45-10.7-22.49,4.58-17.1,11.43-9.61,26.53-41.17.67-1.4.52-3,2.05-3.33,6.18-1.15,14.1-4.08,18.08-9.11,7.94-10,2.2-21.39-6.84-28-7.45-5.45-20.81-11.73-26.14-.34-2.17,4.65-1.14,10.16,0,14.92.71,3.06,1.49,6.11,2.3,9.15a2.65,2.65,0,0,1-2.72,3.33c-4.65-.29-8.66-.76-10.86-.92-6.44-.49-15.69-.09-20.72-4.85-7.14-6.74-3.44-17.94.6-25.08,7.28-12.87,35-53.58,38.3-82.94,2.63-23.25-8-62.18-16.36-79.68S327.81,432.51,330,408.21c2.07-23.12,8.1-77.64,18.9-89a2.66,2.66,0,0,1,4,.15c24.75,30.05,38.9,47.37,60.82,79.52,7.83,11.48,17.27,6.45,19.37.65,8.86-24.48,13.87-38.18,21.86-63a2.64,2.64,0,0,1,4-1.4c32.47,21.12,64.9,42.32,97.49,63.27C620.83,439.9,769.42,540.9,777.21,540c1.21-.14,2-2,2.09-2.16C802.24,486.73,831.86,405.05,784.42,359.07ZM531.86,306.2c-5.68.58-13.75-4.69-11.69-10.73,2.65-7.73,9.59-11,17-14a69.34,69.34,0,0,1,16.44-4.34,2.66,2.66,0,0,1,3,3.23C553.47,293.5,546.37,304.72,531.86,306.2Zm58.42,32.58c-3,3.76-12.92,13.89-18.06,15.37-14.22,4.09-7.31-10.34-4.88-14.42,6.52-10.93,16.26-21.8,26.86-28.88.66-.44,1.32-.86,2-1.26a2.64,2.64,0,0,1,3.94,2.53C599.51,321,596.45,331.16,590.28,338.78Zm56.12,20c-10.94,11-15.6.07-12.07-8.76a38.39,38.39,0,0,1,11.44-15.23,39,39,0,0,1,5.47-3.71,2.63,2.63,0,0,1,3.88,2.09C655.75,342.28,652.79,352.39,646.4,358.79Zm55.75,16.47c-11.57,13-18.54-4.46-14.7-13.38a29.72,29.72,0,0,1,12.15-13.67,2.65,2.65,0,0,1,3.77,1.24C707,357.89,708.29,368.37,702.15,375.26ZM382.24,266.41a234,234,0,0,1,85-19.38,5.05,5.05,0,0,1,5,6.59c-6.82,21.06-12.79,42.41-19.64,63.46a2.66,2.66,0,0,1-4,1.42c-22.15-14.15-45.18-28.66-67.21-43A5.18,5.18,0,0,1,382.24,266.41ZM356.68,665.75c1.56-13.91,18-2,20.1,4.42,3,9-4.43,12.29-13.66,13.18a2.67,2.67,0,0,1-2.78-1.76C358.42,676.09,356.24,669.68,356.68,665.75Z"/><path class="cls-5" d="M471.32,374.4a90.72,90.72,0,0,1-15.78-12.29c-3.76-3.74-7.08-8.25-11.51-11.22a.49.49,0,0,0-.77.5c2.31,12,13.47,20.16,23.18,26.29C469.39,379.54,474.38,376.33,471.32,374.4Z"/><path class="cls-5" d="M459.12,398.48c-2.64-3.89-6.84-6.73-10.1-10.15-3.52-3.69-6.66-7.73-10.06-11.53-1.1-1.23-3.44.17-2.67,1.71a62.09,62.09,0,0,0,8.61,12.65c3.12,3.68,8,10.41,12.41,12.5C459,404.49,460.43,400.41,459.12,398.48Z"/><path class="cls-5" d="M518.91,524.12c-14.78-24.75-39.37-43.34-54.87-67.47-4-6.19-8.34-13.45-9.93-20.67-1.82-8.29,1.51-17.32,4.34-24.9,5.54-14.85,11.87-30.78,17.75-45,.67-1.62-3.62-7.12-6.2-1.68-7.44,15.71-14.43,33.53-20.37,49.83-5.47,15-3.16,25.12,4.56,39.2,15.32,27.95,44.93,46.33,60.76,73.9C516.48,530,520.45,526.7,518.91,524.12Z"/><path class="cls-5" d="M727.77,620.38c-20.46,12.26-40.41,29.5-58.12,51.4-1.3,1.61,1.39,3.44,2.94,2.23,9.86-7.63,17.57-18,26.85-26.41,9.44-8.53,19.68-15.82,30.15-23C732.94,622.28,731.61,618.08,727.77,620.38Z"/><path class="cls-5" d="M753.67,627.33c-20.46,12.25-51.13,37-68.84,58.89-1.3,1.61,1.39,3.44,2.95,2.23,9.86-7.63,17.57-18,26.84-26.4,9.44-8.54,30.4-23.32,40.87-30.52C758.85,629.23,757.51,625,753.67,627.33Z"/><path class="cls-5" d="M768.53,643.2c-20.45,12.25-51.13,37-68.84,58.89-1.3,1.61,1.39,3.44,2.95,2.23,9.86-7.63,17.57-18,26.84-26.41,9.45-8.53,30.4-23.31,40.88-30.51C773.71,645.1,772.37,640.9,768.53,643.2Z"/><path class="cls-5" d="M768.71,668.9c-20.46,12.26-40.41,29.5-58.12,51.4-1.3,1.61,1.39,3.44,2.94,2.23,9.87-7.63,17.58-18,26.85-26.4,9.44-8.54,19.68-15.83,30.15-23C773.88,670.8,772.55,666.6,768.71,668.9Z"/><path class="cls-3" d="M751.21,713.64c-21.49,15.25-32.15,25.58-54.22,40a15.07,15.07,0,0,0-.75-5.91c-1.76-5-6.31-7-11.16-5.29-2.73,1-5.31,3.17-8,4.32-7.21,3.09-8.23.9-6.82-4.94a158.81,158.81,0,0,1,5.35-17.22c.75-2.1-.89-1.81-1.18-1.28-2.65,4.74-15.28,26.86-5.6,30.14,5.81,2,13.67-5.63,18.48-6.64,4.42-.93,6,2,5.85,5.13a24.89,24.89,0,0,1-.55,4.53c-6.43,4.07-16.16,8.63-18.44,16.43-1,3.33-.27,8.88,3.9,9.77,5,1.08,9.84-7.11,12-10.55a52.45,52.45,0,0,0,5.64-11.86c7.79-4.62,41.93-31.3,57.48-42.63C755.57,715.89,753.75,711.84,751.21,713.64Zm-66.79,59.79c-1.9,2.44-5.4,6.45-6.39,2.34-.88-3.68,1.46-5.69,3.94-7.47a81.61,81.61,0,0,1,8.14-4.82A39.29,39.29,0,0,1,684.42,773.43Z"/><path class="cls-2" d="M388.81,921.8c1.46,12.42,3.65,24.52,3.69,37.08,0,8.39-3.92,19.37,1.09,26.64a2.06,2.06,0,0,0,2.87.76c8.16-5.39,5.43-21,4.89-29.66-.76-12.29-3.31-24.94-8.6-36.08C391.78,918.48,388.56,919.65,388.81,921.8Z"/><path class="cls-2" d="M427.55,931.48a13.61,13.61,0,0,0-8.39.58c2.53-4.32,3.95-9.11,2.35-13.4-3.75-10.12-14.12-4.3-18.94,1.08-.92,1,.15,2.9,1.38,1.87q14.91-4.92,12.07,2.66a18,18,0,0,1-2,4.28,29.09,29.09,0,0,1-7.49,8.71c-2.19,1.78-.77,6.5,2.35,5.83,4-.87,19.32-10,18.46.63-.58,7.23-10.38,11.73-16.07,13.4-4,1.17-3.09,7.42,1.19,7,10.91-1.21,22.3-11.89,22.16-23.42A9.34,9.34,0,0,0,427.55,931.48Z"/><path class="cls-3" d="M441,913.46a3.21,3.21,0,0,0-.67,4.81l.24.27a2.75,2.75,0,0,0,4.72-2.54l-.12-.41C444.65,913.82,442.81,912.45,441,913.46Z"/><path class="cls-3" d="M447.73,924.79c-.42-.56-1.45-.18-1.53.62a27,27,0,0,0,.59,7c.39,2.67.37,6,1.44,8.46.65,1.5,2.73,1.89,3.47.2C453.62,936.7,450.63,928.67,447.73,924.79Z"/><path class="cls-3" d="M460.29,891.41a1.33,1.33,0,0,0-2.26.66c-1.2,5.58,1.3,11.3,2.4,16.77,1.39,6.91,2.09,13.88,3.6,20.76a1.21,1.21,0,0,0,2.36,0c1.41-7.08,1-13.78-.07-20.88C465.45,902.88,464.79,895.68,460.29,891.41Z"/><path class="cls-3" d="M479.54,882.25c-1.88-2.35-4.71-.22-4.48,2.27.45,5.15,3,10.15,4.18,15.18s2,10,3.64,15a1.13,1.13,0,0,0,2.2.05C487.69,905,486,890.3,479.54,882.25Z"/><path class="cls-4" d="M510.16,866.05c-4.76,1.1-7.79,4.72-9.3,9a8.36,8.36,0,0,0-1.5-1.19c-1.17-.71-3.37-.12-3.09,1.3.51,2.54,2.71,6.28,4.33,9.66,1.84,3.86,2.67,8.56,4.47,12.43.95,2,3.83.83,3.38-1.28a94,94,0,0,0-3-12.05c-.54-1.53-1.08-3.15-1.77-4.68,1.52-2.74,3.63-5.45,6.28-6.69,5.22-2.46,7.07,5.06,8.16,8.75,1.19,4,6.74,1.62,5.57-2.35C521.9,873,517.86,864.27,510.16,866.05Z"/><path class="cls-4" d="M538.64,843.1a11.54,11.54,0,0,0-8.64,2.64c-8.06,6.23-2.34,15.35,1.75,18.13A10.91,10.91,0,0,0,548.12,858,11.55,11.55,0,0,0,538.64,843.1Zm4.18,14.45a6.25,6.25,0,0,1-9.07,1.57c-2.67-2.25-3.81-7.36-1.6-9.59,3.16-3.18,6.18-1.77,7.71-1.06A6.43,6.43,0,0,1,542.82,857.55Z"/><path class="cls-2" d="M572.37,827.47c-2.14-3.3-3.53-6.31-6.24-9.81-2-2.62-3.61.39-2.85,1.42.22.3.43.65.57.86-2.83-.67-5.66.58-7.93,2.81a12.07,12.07,0,0,0-2.9,13.57c1.94,4.29,6.52,7.22,11.27,6.1A14.52,14.52,0,0,0,572.9,836c2.4,5.75,3.79,11.8,3,18.08-1.44,11.55-9.22,21.8-16.8,30.13-13.45,14.78-30,25.34-46.53,36.25-3.06,2-.4,7.64,2.86,5.57,21.81-13.86,45.83-30.59,58.89-53.49,8.23-14.42,7.34-27.45.6-39.84a3.22,3.22,0,0,0,.43-2.31A3.32,3.32,0,0,0,572.37,827.47Zm-14.18,7.13c-1.45-1.89-1.25-4.1-.47-6.21.95-2.51,3.74-6,7.33-6.63,1.75,2.67,3.12,4.88,4.7,7.76C568.13,833.72,561.75,839.25,558.19,834.6Z"/><path class="cls-3" d="M605.9,801.47c-4.89-1.06-9.77-3.06-14.64-4.4-2-.55-17.65,8.53-8.39,21.25,2.8,3.86,8.45,3.85,12.07,1.14a13.69,13.69,0,0,0,4.45-6.38,15.48,15.48,0,0,0,.77-7.87l2.67,1c4.12,1.56,11.42,5.27,15.39,2.36a2.39,2.39,0,0,0,.39-3.19C615.77,802,610,802.37,605.9,801.47Zm-11.34,11.62c-1.6,2.24-4.2,4.48-7.14,3.27-5.1-2.1-3.38-12.86,4-15.53,1.67,1,3.82,2.12,6,3.12C597.34,804,597.18,809.4,594.56,813.09Z"/><path class="cls-3" d="M632.63,776.53a44.81,44.81,0,0,0-1.57,6.39c-1.36,6.35-6.21,2.71-9.65-.18-1.28-1.07-2.51-2.22-3.71-3.41q2.59-2.19,5.31-4.22c3.71-2.75-.41-8.74-4.14-5.5-1.61,1.39-3.58,3.09-5.46,5a57.5,57.5,0,0,1-6.72-10.26c-.27-.55-2.64-1.07-1.62,1.5a42.94,42.94,0,0,0,6,11.23c-2.43,2.75-4.1,5.42-4.55,8.48-.13.81.44,2.05,1.49,1.66,2.69-1,4.71-3.36,6.79-5.36A31.27,31.27,0,0,0,625.17,791c8.74,4.48,11.29-7.32,10.61-13.7C635.61,775.74,633.3,774.7,632.63,776.53Z"/><path class="cls-3" d="M662.44,760.22c-6.08,1-11.49,4.66-17.41,1.14,5.27-1.51,9.41-6.82,5.15-12-3.6-4.35-10.84-3.19-13.73,1.39-3.36,5.33,2.13,12.32,6.64,15,6,3.56,15.2,2.37,20.66-1.75C665.18,763,664.47,759.88,662.44,760.22Zm-20.26-8.63c2.29-1.28,8.18.06,5.08,5.07a13.67,13.67,0,0,1-3.21,3c-.12.08-.72.31-.78.43C640.61,757.76,638.22,753.8,642.18,751.59Z"/></svg>